<svg xmlns="http://www.w3.org/2000/svg" xmlns:xlink="http://www.w3.org/1999/xlink" width="463" zoomAndPan="magnify" viewBox="0 0 347.25 131.999998" height="176" preserveAspectRatio="xMidYMid meet" version="1.0"><defs><clipPath id="79d3da376d"><path d="M 149 20 L 346.140625 20 L 346.140625 71 L 149 71 Z M 149 20 " clip-rule="nonzero"/></clipPath><clipPath id="acc2e80264"><path d="M 144.078125 68 L 250 68 L 250 119 L 144.078125 119 Z M 144.078125 68 " clip-rule="nonzero"/></clipPath></defs><path fill="#ffffff" d="M 118.035156 88.492188 C 117.757812 87.457031 117.3125 86.472656 116.71875 85.582031 C 116.84375 85.113281 116.941406 84.636719 117.007812 84.152344 C 117.433594 81.097656 116.371094 78.296875 114.375 76.132812 C 113.292969 74.949219 112.132812 74.167969 110.90625 73.6875 C 111.710938 70.238281 112.117188 66.707031 112.121094 63.167969 C 112.121094 61.546875 112.027344 59.964844 111.875 58.402344 C 111.796875 57.621094 111.699219 56.84375 111.585938 56.070312 C 111.234375 53.78125 110.710938 51.523438 110.023438 49.3125 C 109.574219 47.859375 109.050781 46.429688 108.460938 45.027344 C 107.578125 42.953125 106.542969 40.941406 105.371094 39.015625 C 104.601562 37.730469 103.765625 36.492188 102.863281 35.296875 C 102.417969 34.695312 101.957031 34.109375 101.476562 33.535156 C 100.058594 31.808594 98.511719 30.1875 96.855469 28.683594 C 96.308594 28.175781 95.742188 27.6875 95.160156 27.21875 C 94.589844 26.742188 94.003906 26.28125 93.410156 25.835938 C 92.210938 24.941406 90.96875 24.105469 89.695312 23.324219 C 82.644531 19.042969 74.375 16.585938 65.539062 16.585938 C 39.808594 16.585938 18.957031 37.441406 18.957031 63.167969 C 18.957031 66.753906 19.371094 70.332031 20.195312 73.820312 C 19.089844 74.300781 18.03125 75.050781 17.050781 76.132812 C 15.054688 78.296875 13.992188 81.085938 14.417969 84.140625 C 14.480469 84.628906 14.578125 85.109375 14.707031 85.582031 C 14.109375 86.472656 13.664062 87.457031 13.390625 88.492188 C 12.777344 90.828125 12.980469 92.929688 13.757812 94.773438 C 12.910156 97.183594 13.121094 99.75 14.226562 101.980469 C 15.03125 103.613281 16.179688 104.871094 17.597656 106 C 19.28125 107.335938 21.390625 108.476562 23.933594 109.566406 C 26.96875 110.863281 30.671875 112.078125 32.359375 112.523438 C 36.710938 113.648438 40.882812 114.363281 45.109375 114.398438 C 51.136719 114.453125 56.324219 113.039062 60.039062 109.414062 C 61.863281 109.636719 63.699219 109.75 65.539062 109.746094 C 67.480469 109.742188 69.421875 109.621094 71.351562 109.382812 C 75.054688 113.03125 80.265625 114.460938 86.3125 114.402344 C 90.539062 114.367188 94.710938 113.65625 99.050781 112.527344 C 100.75 112.082031 104.453125 110.863281 107.488281 109.570312 C 110.03125 108.476562 112.140625 107.339844 113.835938 106 C 115.242188 104.875 116.390625 103.613281 117.195312 101.984375 C 118.308594 99.753906 118.511719 97.1875 117.675781 94.777344 C 118.445312 92.933594 118.648438 90.824219 118.035156 88.492188 Z M 113.71875 94.621094 C 114.570312 96.242188 114.625 98.074219 113.871094 99.78125 C 112.726562 102.367188 109.886719 104.40625 104.367188 106.59375 C 100.9375 107.957031 97.792969 108.824219 97.765625 108.832031 C 93.226562 110.011719 89.125 110.609375 85.570312 110.609375 C 79.683594 110.609375 75.304688 108.984375 72.53125 105.777344 C 67.832031 106.578125 63.039062 106.605469 58.335938 105.859375 C 55.554688 109.011719 51.199219 110.609375 45.367188 110.609375 C 41.8125 110.609375 37.707031 110.011719 33.167969 108.832031 C 33.140625 108.824219 30 107.957031 26.566406 106.59375 C 21.046875 104.40625 18.207031 102.371094 17.0625 99.78125 C 16.308594 98.074219 16.363281 96.242188 17.21875 94.621094 C 17.296875 94.46875 17.382812 94.320312 17.472656 94.179688 C 16.960938 93.410156 16.617188 92.539062 16.464844 91.628906 C 16.3125 90.714844 16.355469 89.78125 16.589844 88.890625 C 16.929688 87.597656 17.628906 86.523438 18.582031 85.753906 C 18.125 85 17.820312 84.160156 17.695312 83.285156 C 17.421875 81.386719 18.054688 79.488281 19.472656 77.941406 C 20.578125 76.738281 22.140625 76.078125 23.867188 76.078125 L 23.914062 76.078125 C 22.609375 71.898438 21.949219 67.542969 21.953125 63.167969 C 21.953125 39.289062 41.308594 19.933594 65.191406 19.933594 C 89.070312 19.933594 108.425781 39.289062 108.425781 63.167969 C 108.429688 67.554688 107.765625 71.921875 106.453125 76.109375 C 106.660156 76.089844 106.867188 76.078125 107.066406 76.078125 C 108.796875 76.078125 110.359375 76.742188 111.460938 77.945312 C 112.882812 79.488281 113.511719 81.386719 113.238281 83.289062 C 113.113281 84.164062 112.8125 85 112.351562 85.753906 C 113.304688 86.527344 114.007812 87.601562 114.347656 88.890625 C 114.582031 89.785156 114.625 90.71875 114.472656 91.628906 C 114.320312 92.542969 113.976562 93.410156 113.460938 94.179688 C 113.554688 94.320312 113.640625 94.46875 113.71875 94.621094 Z M 113.71875 94.621094 " fill-opacity="1" fill-rule="nonzero"/><path fill="#ff9d00" d="M 113.460938 94.179688 C 113.976562 93.410156 114.320312 92.542969 114.472656 91.628906 C 114.625 90.71875 114.582031 89.785156 114.347656 88.890625 C 114.007812 87.601562 113.304688 86.527344 112.351562 85.753906 C 112.8125 85 113.113281 84.164062 113.238281 83.289062 C 113.511719 81.386719 112.882812 79.492188 111.460938 77.945312 C 110.359375 76.742188 108.796875 76.078125 107.066406 76.078125 C 106.867188 76.078125 106.660156 76.089844 106.453125 76.109375 C 107.761719 71.921875 108.425781 67.554688 108.421875 63.167969 C 108.421875 39.289062 89.066406 19.933594 65.1875 19.933594 C 41.3125 19.933594 21.953125 39.289062 21.953125 63.167969 C 21.949219 67.546875 22.609375 71.898438 23.914062 76.078125 L 23.867188 76.078125 C 22.136719 76.078125 20.574219 76.738281 19.472656 77.945312 C 18.050781 79.488281 17.421875 81.386719 17.695312 83.289062 C 17.820312 84.160156 18.121094 85 18.582031 85.753906 C 17.628906 86.523438 16.925781 87.597656 16.585938 88.890625 C 16.351562 89.785156 16.308594 90.71875 16.464844 91.628906 C 16.617188 92.542969 16.960938 93.410156 17.472656 94.179688 C 17.378906 94.324219 17.296875 94.46875 17.21875 94.621094 C 16.363281 96.242188 16.308594 98.074219 17.0625 99.78125 C 18.207031 102.371094 21.046875 104.410156 26.566406 106.597656 C 29.996094 107.957031 33.140625 108.828125 33.167969 108.835938 C 37.707031 110.011719 41.8125 110.609375 45.367188 110.609375 C 51.199219 110.609375 55.554688 109.015625 58.335938 105.859375 C 63.039062 106.605469 67.832031 106.578125 72.53125 105.78125 C 75.304688 108.988281 79.683594 110.609375 85.570312 110.609375 C 89.125 110.609375 93.226562 110.011719 97.765625 108.835938 C 97.792969 108.828125 100.9375 107.957031 104.367188 106.597656 C 109.886719 104.410156 112.730469 102.371094 113.871094 99.78125 C 114.625 98.074219 114.570312 96.242188 113.71875 94.621094 C 113.640625 94.46875 113.554688 94.320312 113.460938 94.179688 Z M 56.34375 100.925781 C 56.105469 101.34375 55.847656 101.75 55.578125 102.148438 C 54.859375 103.199219 53.914062 104.003906 52.816406 104.601562 C 50.71875 105.746094 48.0625 106.144531 45.367188 106.144531 C 41.105469 106.144531 36.734375 105.148438 34.289062 104.515625 C 34.167969 104.484375 19.28125 100.277344 21.167969 96.699219 C 21.484375 96.097656 22.003906 95.855469 22.664062 95.855469 C 25.316406 95.855469 30.148438 99.808594 32.222656 99.808594 C 32.6875 99.808594 33.015625 99.609375 33.148438 99.128906 C 34.035156 95.953125 19.699219 94.621094 20.90625 90.023438 C 21.117188 89.210938 21.695312 88.878906 22.507812 88.878906 C 26.015625 88.878906 33.890625 95.050781 35.539062 95.050781 C 35.664062 95.050781 35.753906 95.011719 35.804688 94.933594 C 35.8125 94.921875 35.820312 94.914062 35.824219 94.898438 C 36.597656 93.625 36.15625 92.695312 30.859375 89.453125 L 30.351562 89.144531 C 24.523438 85.617188 20.433594 83.492188 22.757812 80.960938 C 23.027344 80.667969 23.40625 80.539062 23.867188 80.539062 C 24.414062 80.539062 25.074219 80.722656 25.804688 81.027344 C 28.882812 82.328125 33.148438 85.867188 34.929688 87.410156 C 35.210938 87.652344 35.488281 87.898438 35.765625 88.148438 C 35.765625 88.148438 38.019531 90.492188 39.386719 90.492188 C 39.699219 90.492188 39.964844 90.371094 40.144531 90.0625 C 41.113281 88.433594 31.160156 80.890625 30.601562 77.777344 C 30.21875 75.671875 30.867188 74.601562 32.0625 74.601562 C 32.632812 74.601562 33.328125 74.84375 34.09375 75.332031 C 36.472656 76.839844 41.066406 84.734375 42.75 87.804688 C 43.3125 88.832031 44.273438 89.269531 45.140625 89.269531 C 46.863281 89.269531 48.207031 87.558594 45.300781 85.382812 C 40.929688 82.113281 42.460938 76.769531 44.546875 76.441406 C 44.636719 76.425781 44.726562 76.417969 44.816406 76.417969 C 46.714844 76.417969 47.550781 79.6875 47.550781 79.6875 C 47.550781 79.6875 50.003906 85.847656 54.214844 90.054688 C 58.039062 93.875 58.574219 97.011719 56.34375 100.925781 Z M 69.96875 101.644531 L 69.75 101.671875 L 69.378906 101.714844 C 69.179688 101.734375 68.984375 101.753906 68.789062 101.773438 L 68.597656 101.789062 L 68.421875 101.804688 L 68.171875 101.824219 L 67.898438 101.84375 L 67.621094 101.863281 L 67.5625 101.867188 C 67.492188 101.871094 67.417969 101.875 67.347656 101.878906 L 67.253906 101.882812 C 67.167969 101.886719 67.085938 101.890625 67 101.894531 L 66.703125 101.910156 L 66.433594 101.917969 L 66.253906 101.921875 L 66.160156 101.921875 C 66.105469 101.921875 66.046875 101.925781 65.992188 101.925781 L 65.902344 101.925781 C 65.847656 101.925781 65.792969 101.925781 65.734375 101.929688 L 65.503906 101.933594 L 65.1875 101.933594 C 64.933594 101.933594 64.683594 101.929688 64.433594 101.925781 L 64.230469 101.917969 C 64.175781 101.917969 64.117188 101.917969 64.058594 101.914062 L 63.84375 101.910156 L 63.578125 101.898438 L 63.335938 101.886719 L 63.277344 101.886719 L 63.046875 101.875 C 62.984375 101.871094 62.921875 101.867188 62.855469 101.863281 L 62.707031 101.855469 C 62.523438 101.84375 62.335938 101.828125 62.152344 101.816406 L 61.957031 101.796875 C 61.875 101.792969 61.792969 101.785156 61.710938 101.777344 C 61.617188 101.769531 61.519531 101.761719 61.425781 101.75 C 61.265625 101.738281 61.105469 101.71875 60.945312 101.703125 L 60.9375 101.703125 C 63.273438 96.488281 62.09375 91.617188 57.367188 86.894531 C 54.269531 83.800781 52.207031 79.230469 51.78125 78.226562 C 50.914062 75.257812 48.625 71.957031 44.820312 71.957031 C 44.496094 71.957031 44.175781 71.980469 43.859375 72.03125 C 42.191406 72.292969 40.734375 73.253906 39.695312 74.699219 C 38.570312 73.300781 37.480469 72.191406 36.492188 71.5625 C 35.003906 70.617188 33.519531 70.140625 32.070312 70.140625 C 30.265625 70.140625 28.648438 70.882812 27.523438 72.226562 L 27.496094 72.261719 C 27.472656 72.171875 27.453125 72.085938 27.433594 71.996094 L 27.429688 71.984375 C 27.214844 71.066406 27.035156 70.144531 26.890625 69.214844 C 26.890625 69.210938 26.890625 69.203125 26.886719 69.195312 C 26.875 69.125 26.867188 69.054688 26.855469 68.984375 C 26.824219 68.777344 26.792969 68.570312 26.765625 68.363281 C 26.753906 68.265625 26.742188 68.171875 26.730469 68.078125 L 26.695312 67.792969 C 26.683594 67.699219 26.675781 67.613281 26.664062 67.523438 L 26.660156 67.5 C 26.621094 67.132812 26.585938 66.765625 26.554688 66.394531 L 26.542969 66.253906 L 26.523438 66.011719 C 26.519531 65.945312 26.515625 65.878906 26.511719 65.8125 C 26.511719 65.796875 26.507812 65.78125 26.507812 65.765625 C 26.496094 65.582031 26.484375 65.394531 26.476562 65.210938 C 26.46875 65.113281 26.464844 65.015625 26.460938 64.917969 L 26.449219 64.667969 L 26.449219 64.589844 L 26.4375 64.355469 L 26.433594 64.15625 C 26.433594 64.078125 26.429688 63.996094 26.429688 63.917969 C 26.425781 63.839844 26.425781 63.753906 26.425781 63.667969 C 26.425781 63.585938 26.425781 63.5 26.421875 63.417969 C 26.421875 63.335938 26.421875 63.25 26.421875 63.167969 C 26.421875 41.757812 43.78125 24.398438 65.195312 24.398438 C 86.609375 24.398438 103.964844 41.753906 103.964844 63.167969 L 103.964844 63.667969 C 103.964844 63.75 103.964844 63.835938 103.960938 63.917969 C 103.960938 63.988281 103.960938 64.054688 103.957031 64.125 C 103.957031 64.1875 103.953125 64.25 103.953125 64.308594 C 103.953125 64.386719 103.949219 64.464844 103.945312 64.542969 L 103.945312 64.550781 L 103.933594 64.820312 C 103.929688 64.898438 103.929688 64.980469 103.925781 65.058594 L 103.921875 65.117188 L 103.90625 65.371094 C 103.878906 65.914062 103.835938 66.457031 103.785156 67 L 103.785156 67.003906 C 103.777344 67.09375 103.765625 67.183594 103.757812 67.273438 L 103.664062 68.101562 L 103.628906 68.347656 C 103.617188 68.4375 103.605469 68.527344 103.59375 68.613281 C 103.582031 68.714844 103.566406 68.8125 103.550781 68.914062 L 103.515625 69.148438 L 103.472656 69.414062 C 103.457031 69.5 103.445312 69.589844 103.425781 69.675781 C 103.410156 69.765625 103.398438 69.855469 103.382812 69.941406 C 103.351562 70.117188 103.320312 70.292969 103.285156 70.46875 C 103.234375 70.730469 103.179688 70.992188 103.125 71.257812 L 103.070312 71.515625 C 103.050781 71.601562 103.03125 71.6875 103.011719 71.773438 C 101.921875 70.714844 100.476562 70.136719 98.882812 70.136719 C 97.4375 70.136719 95.949219 70.617188 94.460938 71.558594 C 93.472656 72.1875 92.382812 73.296875 91.257812 74.695312 C 90.21875 73.25 88.761719 72.292969 87.09375 72.027344 C 86.777344 71.980469 86.457031 71.953125 86.132812 71.953125 C 82.328125 71.953125 80.039062 75.253906 79.171875 78.222656 C 78.742188 79.226562 76.679688 83.796875 73.578125 86.894531 C 68.859375 91.601562 67.667969 96.453125 69.96875 101.644531 Z M 109.996094 91.203125 L 109.980469 91.25 C 109.941406 91.351562 109.894531 91.453125 109.84375 91.550781 C 109.808594 91.621094 109.765625 91.691406 109.722656 91.757812 C 109.636719 91.886719 109.542969 92.007812 109.441406 92.121094 C 109.417969 92.148438 109.394531 92.175781 109.367188 92.203125 C 109.332031 92.242188 109.292969 92.28125 109.253906 92.316406 C 108.566406 93 107.515625 93.597656 106.328125 94.148438 C 106.195312 94.207031 106.058594 94.269531 105.921875 94.332031 L 105.785156 94.390625 C 105.691406 94.433594 105.601562 94.472656 105.503906 94.511719 C 105.414062 94.550781 105.316406 94.589844 105.222656 94.628906 L 104.9375 94.75 C 104.269531 95.023438 103.585938 95.285156 102.917969 95.542969 L 102.632812 95.652344 L 102.351562 95.765625 C 102.164062 95.835938 101.976562 95.910156 101.796875 95.984375 L 101.523438 96.09375 L 101.125 96.257812 C 101.039062 96.292969 100.953125 96.332031 100.867188 96.367188 C 98.90625 97.210938 97.492188 98.066406 97.789062 99.128906 C 97.796875 99.160156 97.804688 99.1875 97.816406 99.214844 C 97.84375 99.296875 97.878906 99.371094 97.925781 99.4375 C 97.953125 99.480469 97.980469 99.519531 98.015625 99.554688 C 98.367188 99.917969 99 99.863281 99.800781 99.574219 C 99.914062 99.53125 100.027344 99.488281 100.136719 99.445312 L 100.207031 99.414062 C 100.390625 99.335938 100.582031 99.25 100.78125 99.15625 C 100.832031 99.132812 100.882812 99.109375 100.929688 99.085938 C 101.910156 98.605469 103.019531 97.960938 104.121094 97.375 C 104.5625 97.136719 105.007812 96.910156 105.460938 96.695312 C 106.503906 96.207031 107.484375 95.859375 108.269531 95.859375 C 108.640625 95.859375 108.96875 95.933594 109.238281 96.105469 L 109.285156 96.136719 C 109.457031 96.257812 109.597656 96.414062 109.707031 96.589844 C 109.726562 96.625 109.746094 96.660156 109.765625 96.699219 C 110.15625 97.4375 109.832031 98.203125 109.066406 98.953125 C 108.335938 99.675781 107.195312 100.382812 105.902344 101.035156 C 105.804688 101.085938 105.710938 101.132812 105.613281 101.179688 C 101.761719 103.070312 96.714844 104.496094 96.644531 104.515625 C 95.300781 104.863281 93.378906 105.320312 91.210938 105.664062 L 90.890625 105.714844 L 90.839844 105.71875 C 90.597656 105.757812 90.355469 105.792969 90.109375 105.824219 C 89.863281 105.855469 89.613281 105.886719 89.363281 105.914062 L 89.316406 105.921875 C 88.40625 106.023438 87.492188 106.09375 86.574219 106.128906 L 86.5625 106.128906 C 86.230469 106.140625 85.898438 106.144531 85.566406 106.144531 L 85.1875 106.144531 C 84.679688 106.140625 84.175781 106.117188 83.671875 106.078125 C 83.660156 106.078125 83.648438 106.078125 83.636719 106.074219 C 83.457031 106.058594 83.273438 106.042969 83.09375 106.023438 C 82.910156 106.003906 82.722656 105.980469 82.535156 105.957031 C 82.414062 105.941406 82.292969 105.921875 82.171875 105.902344 C 82.046875 105.882812 81.921875 105.859375 81.800781 105.839844 L 81.632812 105.808594 L 81.617188 105.804688 C 81.441406 105.769531 81.265625 105.734375 81.089844 105.691406 C 80.984375 105.671875 80.882812 105.648438 80.785156 105.621094 L 80.722656 105.605469 C 80.671875 105.59375 80.625 105.578125 80.574219 105.566406 L 80.546875 105.558594 L 80.390625 105.511719 C 80.332031 105.496094 80.273438 105.480469 80.21875 105.460938 L 80.199219 105.457031 L 80.050781 105.410156 C 79.992188 105.394531 79.9375 105.375 79.878906 105.355469 L 79.742188 105.3125 L 79.644531 105.277344 C 79.546875 105.242188 79.449219 105.207031 79.351562 105.167969 L 79.261719 105.132812 L 79.1875 105.105469 C 79.042969 105.046875 78.898438 104.984375 78.753906 104.921875 L 78.644531 104.867188 C 78.609375 104.851562 78.578125 104.835938 78.542969 104.824219 C 78.476562 104.789062 78.410156 104.757812 78.347656 104.722656 L 78.328125 104.714844 L 78.234375 104.664062 C 78.066406 104.578125 77.902344 104.484375 77.742188 104.386719 L 77.652344 104.332031 C 77.609375 104.304688 77.566406 104.277344 77.523438 104.246094 L 77.40625 104.171875 L 77.285156 104.085938 L 77.210938 104.035156 C 77.132812 103.980469 77.058594 103.921875 76.980469 103.863281 L 76.863281 103.773438 C 76.816406 103.734375 76.769531 103.695312 76.722656 103.65625 C 76.683594 103.621094 76.644531 103.589844 76.605469 103.554688 L 76.601562 103.550781 C 76.5625 103.515625 76.519531 103.480469 76.480469 103.441406 C 76.441406 103.40625 76.402344 103.371094 76.363281 103.332031 L 76.355469 103.328125 C 76.316406 103.289062 76.277344 103.25 76.238281 103.207031 C 76.199219 103.167969 76.15625 103.128906 76.117188 103.089844 C 76.082031 103.046875 76.039062 103.007812 76.003906 102.964844 C 75.964844 102.921875 75.929688 102.882812 75.894531 102.84375 L 75.882812 102.828125 C 75.847656 102.789062 75.8125 102.746094 75.78125 102.707031 C 75.707031 102.617188 75.636719 102.53125 75.566406 102.4375 C 75.496094 102.347656 75.429688 102.25 75.363281 102.15625 L 75.300781 102.0625 C 75.21875 101.9375 75.136719 101.816406 75.054688 101.6875 C 74.996094 101.597656 74.9375 101.507812 74.882812 101.414062 C 74.847656 101.355469 74.8125 101.300781 74.777344 101.242188 L 74.761719 101.21875 C 74.730469 101.160156 74.695312 101.105469 74.664062 101.050781 C 74.648438 101.019531 74.628906 100.992188 74.613281 100.960938 C 74.597656 100.925781 74.578125 100.894531 74.558594 100.863281 L 74.53125 100.8125 L 74.511719 100.78125 C 74.476562 100.71875 74.445312 100.65625 74.410156 100.59375 C 74.394531 100.566406 74.378906 100.539062 74.363281 100.511719 L 74.320312 100.421875 L 74.273438 100.335938 C 74.15625 100.105469 74.050781 99.871094 73.945312 99.636719 L 73.910156 99.550781 C 73.886719 99.492188 73.863281 99.433594 73.839844 99.378906 C 73.832031 99.351562 73.820312 99.324219 73.808594 99.296875 C 73.753906 99.152344 73.703125 99.011719 73.65625 98.867188 C 73.640625 98.816406 73.621094 98.765625 73.609375 98.714844 C 73.570312 98.597656 73.539062 98.480469 73.507812 98.363281 C 73.472656 98.222656 73.4375 98.085938 73.414062 97.945312 C 73.40625 97.917969 73.402344 97.890625 73.394531 97.863281 C 73.371094 97.726562 73.347656 97.589844 73.332031 97.449219 C 73.328125 97.421875 73.324219 97.394531 73.320312 97.367188 L 73.3125 97.285156 C 73.300781 97.175781 73.292969 97.066406 73.289062 96.960938 C 73.289062 96.929688 73.285156 96.902344 73.285156 96.878906 C 73.28125 96.824219 73.28125 96.769531 73.28125 96.714844 C 73.25 94.527344 74.355469 92.425781 76.722656 90.0625 C 80.933594 85.855469 83.386719 79.695312 83.386719 79.695312 C 83.386719 79.695312 83.453125 79.4375 83.589844 79.066406 C 83.609375 79.011719 83.628906 78.960938 83.652344 78.902344 C 83.730469 78.695312 83.820312 78.492188 83.921875 78.292969 L 83.941406 78.253906 C 84.027344 78.082031 84.121094 77.917969 84.21875 77.757812 C 84.242188 77.71875 84.265625 77.683594 84.292969 77.644531 C 84.367188 77.535156 84.445312 77.425781 84.53125 77.320312 C 84.574219 77.265625 84.625 77.207031 84.675781 77.152344 C 84.695312 77.132812 84.714844 77.109375 84.734375 77.089844 C 84.980469 76.835938 85.257812 76.632812 85.574219 76.523438 L 85.613281 76.507812 C 85.640625 76.5 85.667969 76.492188 85.695312 76.484375 C 85.726562 76.476562 85.757812 76.46875 85.789062 76.460938 L 85.804688 76.460938 C 85.871094 76.445312 85.9375 76.4375 86.003906 76.433594 L 86.011719 76.433594 C 86.046875 76.433594 86.082031 76.429688 86.117188 76.429688 C 86.164062 76.429688 86.207031 76.429688 86.25 76.433594 C 86.296875 76.4375 86.34375 76.441406 86.390625 76.449219 C 86.769531 76.511719 87.128906 76.738281 87.441406 77.085938 C 87.558594 77.21875 87.664062 77.363281 87.757812 77.511719 C 87.820312 77.613281 87.878906 77.714844 87.933594 77.824219 C 87.953125 77.871094 87.976562 77.914062 87.996094 77.957031 C 88.046875 78.074219 88.097656 78.191406 88.140625 78.3125 C 88.238281 78.59375 88.3125 78.882812 88.363281 79.175781 C 88.40625 79.433594 88.433594 79.695312 88.441406 79.957031 C 88.445312 80.097656 88.445312 80.238281 88.441406 80.382812 C 88.414062 81.046875 88.277344 81.699219 88.039062 82.320312 C 88.015625 82.378906 87.992188 82.433594 87.96875 82.492188 C 87.921875 82.609375 87.871094 82.722656 87.816406 82.832031 C 87.773438 82.917969 87.730469 83.003906 87.683594 83.085938 C 87.652344 83.144531 87.621094 83.199219 87.585938 83.253906 C 87.503906 83.394531 87.414062 83.535156 87.320312 83.671875 L 87.261719 83.757812 C 87.035156 84.070312 86.785156 84.367188 86.507812 84.640625 C 86.238281 84.910156 85.949219 85.164062 85.640625 85.390625 C 85.332031 85.621094 85.042969 85.871094 84.777344 86.148438 C 84.007812 86.953125 83.828125 87.667969 84 88.207031 C 84.027344 88.292969 84.066406 88.375 84.109375 88.453125 C 84.160156 88.539062 84.222656 88.621094 84.292969 88.695312 L 84.320312 88.726562 L 84.347656 88.753906 C 84.375 88.78125 84.402344 88.804688 84.433594 88.832031 L 84.464844 88.855469 C 84.539062 88.914062 84.617188 88.964844 84.699219 89.007812 C 84.722656 89.023438 84.746094 89.035156 84.773438 89.046875 C 84.863281 89.089844 84.953125 89.128906 85.046875 89.15625 C 85.074219 89.167969 85.101562 89.175781 85.125 89.183594 L 85.160156 89.191406 L 85.207031 89.203125 L 85.246094 89.214844 L 85.332031 89.230469 L 85.371094 89.238281 C 85.402344 89.242188 85.429688 89.246094 85.460938 89.25 L 85.492188 89.257812 L 85.542969 89.261719 L 85.578125 89.265625 L 85.632812 89.269531 L 85.664062 89.269531 L 85.71875 89.273438 L 85.894531 89.273438 L 85.945312 89.269531 L 86.003906 89.265625 L 86.144531 89.25 C 86.15625 89.25 86.171875 89.246094 86.1875 89.242188 C 86.394531 89.214844 86.59375 89.160156 86.785156 89.082031 L 86.867188 89.046875 C 86.914062 89.027344 86.957031 89.007812 87 88.984375 C 87.089844 88.9375 87.179688 88.886719 87.261719 88.832031 C 87.378906 88.753906 87.488281 88.667969 87.59375 88.574219 C 87.617188 88.550781 87.640625 88.527344 87.664062 88.507812 C 87.675781 88.496094 87.6875 88.484375 87.699219 88.472656 C 87.722656 88.449219 87.746094 88.425781 87.765625 88.402344 C 87.929688 88.222656 88.074219 88.023438 88.191406 87.808594 C 89.191406 85.988281 90.238281 84.195312 91.335938 82.429688 L 91.488281 82.191406 L 91.636719 81.949219 C 91.714844 81.828125 91.792969 81.707031 91.867188 81.585938 L 91.945312 81.46875 C 92.199219 81.066406 92.457031 80.671875 92.722656 80.277344 L 92.878906 80.046875 C 93.191406 79.582031 93.503906 79.128906 93.8125 78.699219 L 93.964844 78.488281 C 94.300781 78.023438 94.652344 77.570312 95.015625 77.128906 L 95.160156 76.953125 C 95.183594 76.925781 95.207031 76.898438 95.234375 76.871094 C 95.28125 76.8125 95.328125 76.757812 95.375 76.707031 C 95.398438 76.679688 95.421875 76.652344 95.445312 76.625 L 95.582031 76.46875 L 95.652344 76.394531 C 95.71875 76.320312 95.789062 76.25 95.855469 76.183594 C 95.898438 76.136719 95.941406 76.089844 95.988281 76.046875 C 96.246094 75.78125 96.53125 75.542969 96.839844 75.339844 L 96.910156 75.292969 C 96.980469 75.246094 97.050781 75.203125 97.125 75.164062 C 98.332031 74.476562 99.335938 74.425781 99.910156 75.003906 C 100.261719 75.351562 100.453125 75.929688 100.441406 76.738281 C 100.441406 76.773438 100.441406 76.808594 100.441406 76.84375 L 100.441406 76.882812 C 100.441406 76.921875 100.4375 76.957031 100.433594 76.996094 C 100.433594 77.039062 100.429688 77.085938 100.425781 77.132812 C 100.421875 77.179688 100.417969 77.210938 100.414062 77.253906 C 100.414062 77.265625 100.410156 77.277344 100.410156 77.289062 C 100.40625 77.324219 100.402344 77.359375 100.394531 77.398438 C 100.394531 77.40625 100.394531 77.417969 100.390625 77.429688 C 100.386719 77.480469 100.378906 77.527344 100.371094 77.574219 C 100.367188 77.621094 100.359375 77.664062 100.347656 77.710938 L 100.335938 77.785156 C 100.324219 77.859375 100.304688 77.929688 100.285156 78 C 100.246094 78.132812 100.195312 78.261719 100.140625 78.386719 C 100.0625 78.5625 99.972656 78.730469 99.878906 78.894531 C 99.824219 78.984375 99.769531 79.074219 99.710938 79.160156 C 99.652344 79.253906 99.59375 79.347656 99.53125 79.441406 C 99.367188 79.671875 99.199219 79.898438 99.027344 80.121094 L 98.945312 80.21875 C 98.660156 80.574219 98.367188 80.921875 98.066406 81.261719 L 97.96875 81.367188 C 97.839844 81.511719 97.710938 81.65625 97.574219 81.800781 L 97.472656 81.910156 C 97.40625 81.984375 97.335938 82.058594 97.269531 82.132812 C 97.203125 82.203125 97.132812 82.277344 97.0625 82.351562 L 96.851562 82.574219 L 96.421875 83.019531 C 96.277344 83.171875 96.132812 83.320312 95.988281 83.46875 C 93.914062 85.597656 91.730469 87.71875 90.988281 89.039062 C 90.9375 89.125 90.894531 89.214844 90.855469 89.304688 C 90.75 89.546875 90.707031 89.75 90.734375 89.917969 C 90.746094 89.972656 90.765625 90.023438 90.792969 90.070312 C 90.832031 90.144531 90.882812 90.210938 90.945312 90.269531 C 90.96875 90.296875 91 90.320312 91.03125 90.34375 C 91.183594 90.453125 91.367188 90.507812 91.550781 90.503906 L 91.609375 90.503906 L 91.671875 90.5 L 91.730469 90.492188 L 91.78125 90.484375 C 91.785156 90.484375 91.792969 90.484375 91.800781 90.480469 L 91.847656 90.472656 L 91.859375 90.46875 L 91.910156 90.457031 L 91.925781 90.453125 C 91.945312 90.449219 91.960938 90.445312 91.980469 90.441406 C 91.996094 90.433594 92.023438 90.425781 92.042969 90.421875 C 92.132812 90.394531 92.222656 90.359375 92.308594 90.324219 C 92.355469 90.304688 92.398438 90.285156 92.441406 90.265625 C 92.464844 90.253906 92.488281 90.242188 92.511719 90.230469 L 92.578125 90.199219 C 92.742188 90.113281 92.902344 90.019531 93.058594 89.921875 L 93.125 89.875 C 93.148438 89.863281 93.171875 89.847656 93.191406 89.832031 L 93.261719 89.785156 L 93.296875 89.757812 L 93.394531 89.691406 C 93.488281 89.628906 93.574219 89.5625 93.660156 89.496094 L 93.667969 89.492188 L 93.804688 89.382812 C 93.992188 89.234375 94.171875 89.085938 94.332031 88.945312 L 94.441406 88.851562 L 94.449219 88.84375 L 94.503906 88.792969 C 94.636719 88.675781 94.753906 88.5625 94.851562 88.472656 L 94.894531 88.433594 C 94.929688 88.398438 94.960938 88.367188 94.988281 88.34375 L 95.175781 88.15625 L 95.195312 88.140625 L 95.222656 88.113281 L 95.242188 88.097656 L 95.347656 88.003906 L 95.40625 87.953125 C 95.4375 87.925781 95.464844 87.898438 95.496094 87.871094 L 95.566406 87.808594 C 95.578125 87.796875 95.589844 87.785156 95.605469 87.773438 L 95.675781 87.710938 L 95.785156 87.617188 L 95.84375 87.566406 C 96.0625 87.371094 96.335938 87.140625 96.644531 86.875 L 96.773438 86.769531 L 96.984375 86.589844 L 97.199219 86.410156 C 97.480469 86.179688 97.785156 85.929688 98.105469 85.671875 L 98.3125 85.503906 C 98.492188 85.359375 98.675781 85.214844 98.863281 85.070312 C 98.9375 85.011719 99.015625 84.953125 99.09375 84.894531 C 99.28125 84.746094 99.472656 84.597656 99.667969 84.453125 C 100.105469 84.121094 100.558594 83.789062 101.015625 83.46875 L 101.214844 83.328125 C 101.351562 83.234375 101.488281 83.140625 101.625 83.046875 L 101.75 82.964844 C 101.996094 82.796875 102.242188 82.636719 102.492188 82.476562 L 102.742188 82.320312 C 102.863281 82.246094 102.988281 82.171875 103.109375 82.097656 L 103.230469 82.023438 L 103.476562 81.882812 L 103.714844 81.742188 L 103.765625 81.71875 L 103.957031 81.613281 C 104.035156 81.570312 104.113281 81.527344 104.191406 81.488281 L 104.308594 81.429688 L 104.421875 81.371094 C 104.464844 81.351562 104.503906 81.332031 104.542969 81.3125 C 104.796875 81.1875 105.058594 81.070312 105.328125 80.960938 C 105.398438 80.933594 105.46875 80.90625 105.542969 80.878906 L 105.75 80.808594 C 105.8125 80.785156 105.875 80.765625 105.933594 80.746094 L 105.953125 80.742188 C 105.984375 80.730469 106.019531 80.722656 106.050781 80.714844 L 106.058594 80.710938 C 106.125 80.691406 106.1875 80.675781 106.253906 80.660156 L 106.257812 80.660156 C 106.4375 80.617188 106.621094 80.585938 106.808594 80.566406 C 106.894531 80.558594 106.980469 80.554688 107.066406 80.554688 L 107.109375 80.554688 C 107.164062 80.554688 107.21875 80.558594 107.273438 80.5625 C 107.300781 80.5625 107.324219 80.570312 107.351562 80.570312 L 107.359375 80.570312 C 107.386719 80.574219 107.410156 80.578125 107.433594 80.585938 C 107.457031 80.589844 107.484375 80.59375 107.507812 80.597656 L 107.515625 80.597656 C 107.539062 80.605469 107.558594 80.609375 107.585938 80.617188 C 107.714844 80.652344 107.839844 80.710938 107.953125 80.785156 C 108.007812 80.820312 108.058594 80.859375 108.109375 80.90625 L 108.121094 80.917969 C 108.128906 80.925781 108.140625 80.9375 108.148438 80.945312 L 108.171875 80.972656 C 108.378906 81.1875 108.546875 81.433594 108.675781 81.703125 L 108.695312 81.75 C 108.738281 81.851562 108.773438 81.957031 108.796875 82.066406 C 108.871094 82.394531 108.84375 82.742188 108.71875 83.054688 C 108.667969 83.183594 108.613281 83.304688 108.542969 83.421875 C 108.382812 83.691406 108.195312 83.9375 107.980469 84.164062 L 107.9375 84.214844 C 107.867188 84.285156 107.796875 84.355469 107.722656 84.429688 C 107.691406 84.460938 107.65625 84.492188 107.621094 84.523438 L 107.515625 84.621094 L 107.460938 84.667969 C 107.332031 84.785156 107.195312 84.902344 107.058594 85.011719 C 106.972656 85.078125 106.890625 85.144531 106.804688 85.210938 C 106.503906 85.4375 106.199219 85.660156 105.886719 85.875 C 105.699219 86.003906 105.511719 86.128906 105.320312 86.253906 C 104.851562 86.5625 104.375 86.863281 103.894531 87.15625 C 102.886719 87.773438 101.773438 88.4375 100.582031 89.15625 L 100.273438 89.34375 C 99.9375 89.546875 99.621094 89.746094 99.320312 89.933594 L 99.167969 90.027344 L 98.882812 90.210938 C 98.695312 90.332031 98.503906 90.453125 98.316406 90.574219 L 98.164062 90.675781 C 98.089844 90.722656 98.015625 90.773438 97.945312 90.824219 L 97.871094 90.867188 L 97.648438 91.015625 L 97.53125 91.097656 L 97.394531 91.191406 L 97.269531 91.28125 C 97.054688 91.433594 96.855469 91.578125 96.675781 91.710938 L 96.605469 91.765625 C 96.5 91.847656 96.390625 91.929688 96.285156 92.011719 C 96.128906 92.140625 95.984375 92.261719 95.855469 92.378906 L 95.792969 92.4375 C 95.753906 92.472656 95.71875 92.503906 95.683594 92.535156 C 95.660156 92.558594 95.640625 92.582031 95.613281 92.605469 L 95.582031 92.636719 C 95.507812 92.710938 95.4375 92.785156 95.367188 92.863281 L 95.335938 92.902344 C 95.257812 92.988281 95.195312 93.074219 95.136719 93.15625 L 95.109375 93.191406 C 95.066406 93.257812 95.023438 93.324219 94.988281 93.394531 C 94.976562 93.410156 94.96875 93.429688 94.960938 93.445312 L 94.933594 93.496094 L 94.917969 93.535156 L 94.90625 93.5625 L 94.898438 93.585938 L 94.886719 93.617188 C 94.855469 93.703125 94.832031 93.792969 94.820312 93.882812 L 94.8125 93.945312 L 94.8125 94.105469 C 94.8125 94.117188 94.8125 94.132812 94.816406 94.144531 L 94.820312 94.171875 C 94.820312 94.183594 94.824219 94.195312 94.824219 94.210938 C 94.828125 94.226562 94.832031 94.25 94.835938 94.269531 C 94.839844 94.289062 94.839844 94.304688 94.847656 94.324219 C 94.851562 94.339844 94.855469 94.363281 94.859375 94.378906 C 94.871094 94.417969 94.882812 94.453125 94.894531 94.488281 C 94.902344 94.507812 94.910156 94.53125 94.921875 94.550781 C 94.921875 94.554688 94.921875 94.558594 94.925781 94.5625 L 94.945312 94.605469 L 94.96875 94.664062 C 94.996094 94.722656 95.027344 94.777344 95.058594 94.835938 L 95.128906 94.953125 C 95.136719 94.960938 95.140625 94.96875 95.148438 94.980469 L 95.171875 95.003906 L 95.1875 95.011719 C 95.207031 95.027344 95.226562 95.039062 95.25 95.042969 C 95.261719 95.050781 95.273438 95.050781 95.285156 95.054688 C 95.582031 95.121094 96.1875 94.878906 96.992188 94.453125 C 97.039062 94.425781 97.089844 94.402344 97.136719 94.375 L 97.382812 94.242188 L 97.503906 94.175781 C 97.589844 94.128906 97.675781 94.078125 97.765625 94.027344 L 97.925781 93.933594 C 98.992188 93.320312 100.265625 92.535156 101.582031 91.765625 C 101.703125 91.691406 101.828125 91.621094 101.953125 91.550781 L 102.199219 91.390625 C 102.488281 91.226562 102.78125 91.0625 103.070312 90.902344 C 103.4375 90.699219 103.808594 90.503906 104.179688 90.3125 L 104.421875 90.1875 C 104.585938 90.109375 104.746094 90.03125 104.902344 89.957031 C 105.210938 89.808594 105.519531 89.671875 105.832031 89.542969 L 106.003906 89.472656 L 106.023438 89.464844 C 106.929688 89.105469 107.753906 88.882812 108.421875 88.882812 C 108.566406 88.878906 108.707031 88.894531 108.851562 88.917969 L 108.855469 88.917969 C 108.902344 88.925781 108.941406 88.933594 108.984375 88.945312 L 108.992188 88.945312 C 109.101562 88.972656 109.207031 89.011719 109.308594 89.0625 C 109.449219 89.136719 109.574219 89.230469 109.679688 89.347656 C 109.730469 89.402344 109.773438 89.460938 109.8125 89.523438 C 109.882812 89.632812 109.941406 89.753906 109.980469 89.878906 C 109.996094 89.925781 110.011719 89.972656 110.027344 90.023438 C 110.132812 90.414062 110.125 90.824219 109.996094 91.203125 Z M 109.996094 91.203125 " fill-opacity="1" fill-rule="nonzero"/><path fill="#ffd21e" d="M 103.960938 63.417969 L 103.960938 63.167969 C 103.960938 41.753906 86.609375 24.398438 65.195312 24.398438 C 43.78125 24.398438 26.421875 41.757812 26.421875 63.167969 L 26.421875 63.25 C 26.421875 63.308594 26.421875 63.363281 26.421875 63.417969 C 26.425781 63.5 26.425781 63.585938 26.425781 63.667969 L 26.429688 63.851562 L 26.429688 63.917969 C 26.429688 63.949219 26.429688 63.980469 26.429688 64.011719 C 26.433594 64.058594 26.433594 64.109375 26.433594 64.15625 L 26.441406 64.355469 L 26.449219 64.589844 L 26.449219 64.667969 L 26.460938 64.90625 L 26.460938 64.917969 C 26.464844 65.015625 26.46875 65.109375 26.472656 65.203125 L 26.476562 65.210938 C 26.480469 65.304688 26.484375 65.402344 26.492188 65.5 C 26.496094 65.589844 26.5 65.675781 26.507812 65.765625 L 26.507812 65.78125 C 26.511719 65.859375 26.519531 65.933594 26.523438 66.011719 L 26.527344 66.03125 L 26.542969 66.253906 L 26.542969 66.265625 C 26.546875 66.308594 26.550781 66.351562 26.554688 66.394531 C 26.585938 66.761719 26.621094 67.132812 26.660156 67.5 L 26.664062 67.523438 L 26.695312 67.792969 L 26.730469 68.078125 L 26.753906 68.269531 L 26.765625 68.359375 C 26.792969 68.570312 26.824219 68.777344 26.855469 68.984375 L 26.859375 69 L 26.886719 69.195312 C 27.035156 70.132812 27.214844 71.0625 27.429688 71.984375 L 27.433594 71.996094 L 27.449219 72.066406 L 27.496094 72.261719 L 27.523438 72.226562 C 28.648438 70.882812 30.265625 70.140625 32.070312 70.140625 C 33.519531 70.140625 35.003906 70.617188 36.492188 71.5625 C 37.480469 72.191406 38.570312 73.300781 39.695312 74.699219 C 40.734375 73.253906 42.191406 72.292969 43.859375 72.03125 C 44.175781 71.980469 44.496094 71.957031 44.820312 71.957031 C 48.625 71.957031 50.914062 75.257812 51.78125 78.226562 C 52.207031 79.230469 54.269531 83.800781 57.378906 86.890625 C 62.101562 91.613281 63.285156 96.484375 60.945312 101.699219 L 60.953125 101.699219 C 61.113281 101.714844 61.273438 101.734375 61.433594 101.746094 C 61.53125 101.757812 61.625 101.765625 61.722656 101.773438 L 61.757812 101.777344 L 61.96875 101.796875 L 62.160156 101.8125 C 62.347656 101.824219 62.53125 101.839844 62.71875 101.851562 L 62.867188 101.859375 L 62.984375 101.867188 L 63.054688 101.871094 L 63.285156 101.882812 L 63.347656 101.882812 L 63.585938 101.894531 L 63.855469 101.90625 L 64.070312 101.910156 L 64.105469 101.914062 C 64.148438 101.914062 64.195312 101.914062 64.242188 101.914062 L 64.289062 101.917969 C 64.59375 101.925781 64.894531 101.929688 65.195312 101.929688 L 65.515625 101.929688 L 65.746094 101.925781 C 65.800781 101.921875 65.855469 101.921875 65.914062 101.921875 L 66.078125 101.921875 C 66.109375 101.917969 66.140625 101.917969 66.171875 101.917969 L 66.261719 101.917969 L 66.441406 101.914062 L 66.710938 101.90625 L 67.007812 101.890625 C 67.09375 101.886719 67.179688 101.882812 67.265625 101.878906 L 67.355469 101.875 L 67.492188 101.867188 L 67.574219 101.863281 L 67.632812 101.859375 L 67.90625 101.839844 L 68.183594 101.820312 L 68.429688 101.800781 L 68.605469 101.785156 L 68.796875 101.769531 C 69.121094 101.738281 69.441406 101.707031 69.761719 101.667969 L 69.976562 101.640625 C 67.675781 96.449219 68.867188 91.597656 73.574219 86.894531 C 76.675781 83.796875 78.734375 79.226562 79.167969 78.222656 C 80.03125 75.253906 82.320312 71.953125 86.128906 71.953125 C 86.449219 71.953125 86.769531 71.980469 87.089844 72.027344 C 88.753906 72.289062 90.210938 73.25 91.25 74.695312 C 92.375 73.296875 93.46875 72.1875 94.453125 71.558594 C 95.941406 70.617188 97.429688 70.136719 98.875 70.136719 C 100.46875 70.136719 101.914062 70.714844 103.007812 71.773438 C 103.027344 71.6875 103.046875 71.601562 103.066406 71.515625 L 103.121094 71.257812 C 103.140625 71.160156 103.160156 71.066406 103.179688 70.972656 C 103.210938 70.804688 103.246094 70.636719 103.277344 70.46875 C 103.3125 70.292969 103.34375 70.117188 103.375 69.941406 L 103.390625 69.847656 C 103.402344 69.789062 103.410156 69.734375 103.421875 69.675781 C 103.4375 69.589844 103.453125 69.5 103.46875 69.414062 L 103.472656 69.378906 L 103.507812 69.148438 L 103.542969 68.914062 L 103.542969 68.910156 C 103.570312 68.738281 103.59375 68.5625 103.617188 68.390625 L 103.625 68.347656 L 103.65625 68.101562 L 103.683594 67.894531 L 103.730469 67.480469 L 103.746094 67.316406 L 103.75 67.273438 C 103.761719 67.183594 103.769531 67.09375 103.777344 67.003906 L 103.777344 66.996094 C 103.785156 66.925781 103.792969 66.855469 103.796875 66.785156 C 103.835938 66.382812 103.863281 65.976562 103.890625 65.570312 C 103.894531 65.503906 103.898438 65.4375 103.902344 65.371094 L 103.902344 65.367188 L 103.914062 65.117188 L 103.917969 65.058594 C 103.925781 64.890625 103.933594 64.71875 103.9375 64.550781 L 103.9375 64.542969 L 103.941406 64.476562 C 103.945312 64.421875 103.945312 64.363281 103.945312 64.308594 L 103.949219 64.285156 C 103.949219 64.234375 103.953125 64.179688 103.953125 64.125 L 103.953125 64.078125 C 103.953125 64.027344 103.957031 63.972656 103.957031 63.917969 L 103.957031 63.875 C 103.957031 63.804688 103.960938 63.738281 103.960938 63.667969 Z M 55.578125 102.148438 C 58.648438 97.644531 58.429688 94.265625 54.21875 90.054688 C 50.003906 85.84375 47.554688 79.6875 47.554688 79.6875 C 47.554688 79.6875 46.636719 76.113281 44.550781 76.441406 C 42.464844 76.769531 40.933594 82.113281 45.300781 85.382812 C 49.671875 88.65625 44.433594 90.875 42.75 87.804688 C 41.070312 84.734375 36.476562 76.839844 34.09375 75.332031 C 31.714844 73.820312 30.039062 74.667969 30.601562 77.78125 C 30.878906 79.324219 33.472656 81.960938 35.894531 84.421875 C 38.351562 86.921875 40.632812 89.242188 40.148438 90.0625 C 39.179688 91.695312 35.765625 88.148438 35.765625 88.148438 C 35.765625 88.148438 25.085938 78.429688 22.761719 80.960938 C 20.617188 83.296875 23.925781 85.28125 29.019531 88.339844 C 29.449219 88.597656 29.898438 88.867188 30.355469 89.144531 C 36.179688 92.671875 36.632812 93.601562 35.808594 94.9375 C 35.5 95.429688 33.550781 94.257812 31.152344 92.820312 C 27.0625 90.363281 21.667969 87.125 20.90625 90.023438 C 20.246094 92.53125 24.214844 94.066406 27.8125 95.460938 C 30.8125 96.625 33.554688 97.683594 33.152344 99.125 C 32.734375 100.621094 30.464844 99.375 27.988281 98.011719 C 25.210938 96.480469 22.164062 94.804688 21.167969 96.695312 C 19.28125 100.273438 34.164062 104.484375 34.289062 104.515625 C 39.097656 105.761719 51.308594 108.40625 55.578125 102.148438 Z M 75.359375 102.148438 C 72.289062 97.644531 72.507812 94.265625 76.71875 90.054688 C 80.933594 85.84375 83.382812 79.6875 83.382812 79.6875 C 83.382812 79.6875 84.300781 76.113281 86.386719 76.441406 C 88.472656 76.769531 90.003906 82.113281 85.636719 85.382812 C 81.265625 88.65625 86.503906 90.875 88.1875 87.804688 C 89.867188 84.734375 94.457031 76.839844 96.839844 75.332031 C 99.21875 73.820312 100.894531 74.667969 100.335938 77.78125 C 100.054688 79.324219 97.460938 81.960938 95.039062 84.421875 C 92.582031 86.921875 90.300781 89.242188 90.789062 90.0625 C 91.757812 91.695312 95.167969 88.144531 95.167969 88.144531 C 95.167969 88.144531 105.847656 78.425781 108.175781 80.960938 C 110.316406 83.292969 107.011719 85.277344 101.917969 88.335938 C 101.472656 88.605469 101.027344 88.871094 100.582031 89.140625 C 94.753906 92.667969 94.300781 93.601562 95.128906 94.933594 C 95.433594 95.429688 97.386719 94.257812 99.785156 92.816406 C 103.875 90.359375 109.269531 87.121094 110.03125 90.019531 C 110.691406 92.53125 106.722656 94.066406 103.121094 95.460938 C 100.125 96.621094 97.382812 97.683594 97.785156 99.125 C 98.203125 100.621094 100.46875 99.371094 102.945312 98.011719 C 105.726562 96.480469 108.773438 94.804688 109.769531 96.695312 C 111.652344 100.273438 96.765625 104.480469 96.648438 104.511719 C 91.839844 105.761719 79.625 108.40625 75.359375 102.148438 Z M 75.359375 102.148438 " fill-opacity="1" fill-rule="evenodd"/><path fill="#32343d" d="M 77.785156 52.613281 C 78.390625 52.828125 78.839844 53.480469 79.269531 54.097656 C 79.847656 54.9375 80.382812 55.714844 81.210938 55.277344 C 82.183594 54.757812 82.984375 53.960938 83.503906 52.992188 C 84.027344 52.019531 84.25 50.914062 84.144531 49.816406 C 84.066406 48.996094 83.804688 48.199219 83.382812 47.492188 C 82.960938 46.785156 82.386719 46.175781 81.699219 45.71875 C 81.015625 45.257812 80.238281 44.957031 79.421875 44.832031 C 78.605469 44.710938 77.773438 44.769531 76.984375 45.007812 C 76.191406 45.246094 75.464844 45.65625 74.855469 46.207031 C 74.242188 46.761719 73.757812 47.441406 73.441406 48.203125 C 73.125 48.964844 72.980469 49.789062 73.019531 50.613281 C 73.058594 51.4375 73.277344 52.242188 73.664062 52.96875 C 74.046875 53.6875 74.898438 53.347656 75.792969 52.992188 C 76.496094 52.710938 77.226562 52.417969 77.785156 52.613281 Z M 51.503906 52.613281 C 50.898438 52.828125 50.449219 53.480469 50.019531 54.097656 C 49.441406 54.9375 48.902344 55.714844 48.078125 55.277344 C 46.855469 54.628906 45.914062 53.546875 45.445312 52.242188 C 44.972656 50.9375 45.003906 49.503906 45.53125 48.222656 C 46.058594 46.941406 47.046875 45.902344 48.296875 45.308594 C 49.550781 44.714844 50.980469 44.609375 52.304688 45.007812 C 53.363281 45.328125 54.300781 45.953125 55.003906 46.800781 C 55.703125 47.652344 56.136719 48.695312 56.25 49.792969 C 56.359375 50.890625 56.140625 51.996094 55.625 52.96875 C 55.242188 53.6875 54.390625 53.347656 53.496094 52.992188 C 52.792969 52.710938 52.0625 52.417969 51.503906 52.613281 Z M 73.71875 76.53125 C 77.886719 73.25 79.414062 67.890625 79.414062 64.589844 C 79.414062 61.980469 77.660156 62.804688 74.851562 64.195312 L 74.691406 64.273438 C 72.113281 65.550781 68.679688 67.25 64.910156 67.25 C 61.140625 67.25 57.707031 65.550781 55.125 64.273438 C 52.226562 62.835938 50.40625 61.933594 50.40625 64.589844 C 50.40625 67.996094 52.035156 73.585938 56.5 76.835938 C 57.089844 75.640625 57.921875 74.578125 58.941406 73.714844 C 59.960938 72.855469 61.144531 72.210938 62.421875 71.828125 C 62.871094 71.695312 63.328125 72.464844 63.800781 73.25 C 64.253906 74.007812 64.714844 74.785156 65.1875 74.785156 C 65.691406 74.785156 66.183594 74.019531 66.667969 73.273438 C 67.171875 72.492188 67.664062 71.734375 68.136719 71.886719 C 70.53125 72.652344 72.53125 74.320312 73.71875 76.53125 Z M 73.71875 76.53125 " fill-opacity="1" fill-rule="evenodd"/><path fill="#ff323d" d="M 73.71875 76.53125 C 71.550781 78.242188 68.664062 79.386719 64.910156 79.386719 C 61.382812 79.386719 58.621094 78.375 56.5 76.835938 C 57.089844 75.636719 57.921875 74.574219 58.941406 73.714844 C 59.960938 72.855469 61.144531 72.210938 62.421875 71.828125 C 63.300781 71.566406 64.226562 74.785156 65.1875 74.785156 C 66.214844 74.785156 67.207031 71.589844 68.136719 71.886719 C 70.53125 72.652344 72.53125 74.320312 73.71875 76.53125 Z M 73.71875 76.53125 " fill-opacity="1" fill-rule="nonzero"/><path fill="#ffad03" d="M 41.542969 57.257812 C 41.046875 57.585938 40.476562 57.792969 39.882812 57.851562 C 39.289062 57.910156 38.691406 57.820312 38.140625 57.589844 C 37.699219 57.410156 37.296875 57.144531 36.960938 56.804688 C 36.625 56.46875 36.359375 56.070312 36.175781 55.628906 C 35.949219 55.078125 35.859375 54.480469 35.917969 53.886719 C 35.976562 53.292969 36.179688 52.722656 36.511719 52.226562 C 36.910156 51.628906 37.476562 51.164062 38.140625 50.890625 C 38.800781 50.617188 39.53125 50.542969 40.234375 50.683594 C 40.9375 50.824219 41.585938 51.167969 42.09375 51.675781 C 42.597656 52.183594 42.945312 52.832031 43.082031 53.535156 C 43.222656 54.238281 43.152344 54.96875 42.878906 55.628906 C 42.601562 56.292969 42.136719 56.859375 41.542969 57.257812 Z M 93.421875 57.257812 C 92.925781 57.585938 92.355469 57.792969 91.765625 57.851562 C 91.171875 57.910156 90.570312 57.820312 90.019531 57.589844 C 89.578125 57.410156 89.179688 57.144531 88.84375 56.804688 C 88.507812 56.46875 88.238281 56.070312 88.058594 55.628906 C 87.828125 55.078125 87.742188 54.480469 87.800781 53.886719 C 87.859375 53.292969 88.0625 52.722656 88.394531 52.226562 C 88.691406 51.78125 89.085938 51.40625 89.542969 51.128906 C 90.003906 50.855469 90.519531 50.683594 91.054688 50.632812 C 91.585938 50.578125 92.125 50.644531 92.628906 50.828125 C 93.136719 51.007812 93.59375 51.296875 93.972656 51.679688 C 94.480469 52.183594 94.824219 52.832031 94.964844 53.535156 C 95.105469 54.238281 95.035156 54.96875 94.757812 55.628906 C 94.484375 56.292969 94.019531 56.859375 93.421875 57.257812 Z M 93.421875 57.257812 " fill-opacity="1" fill-rule="evenodd"/><g clip-path="url(#79d3da376d)"><path fill="#ffffff" d="M 149.367188 59.703125 L 149.367188 25.035156 L 158.5 25.035156 L 158.5 37.941406 L 168.804688 37.941406 L 168.804688 25.035156 L 177.9375 25.035156 L 177.9375 59.703125 L 168.804688 59.703125 L 168.804688 45.941406 L 158.5 45.941406 L 158.5 59.703125 Z M 192.898438 60.34375 C 189.992188 60.34375 187.886719 59.363281 186.578125 57.410156 C 185.265625 55.417969 184.613281 52.769531 184.613281 49.460938 L 184.613281 33.035156 L 193.746094 33.035156 L 193.746094 48.289062 C 193.746094 49.996094 193.960938 51.132812 194.382812 51.703125 C 194.84375 52.269531 195.515625 52.554688 196.402344 52.554688 C 197.253906 52.554688 197.960938 52.378906 198.527344 52.023438 C 199.09375 51.667969 199.660156 51.0625 200.226562 50.210938 L 200.226562 33.035156 L 209.363281 33.035156 L 209.363281 59.703125 L 201.925781 59.703125 L 201.289062 56.183594 L 201.074219 56.183594 C 200.015625 57.460938 198.828125 58.476562 197.519531 59.222656 C 196.242188 59.96875 194.703125 60.34375 192.898438 60.34375 Z M 225.195312 70.6875 C 223.175781 70.6875 221.316406 70.457031 219.617188 69.996094 C 217.917969 69.570312 216.554688 68.875 215.527344 67.914062 C 214.535156 66.957031 214.042969 65.675781 214.042969 64.074219 C 214.042969 61.976562 215.28125 60.269531 217.757812 58.957031 L 217.757812 58.742188 C 217.082031 58.238281 216.488281 57.625 216.007812 56.929688 C 215.546875 56.183594 215.316406 55.257812 215.316406 54.15625 C 215.316406 53.230469 215.582031 52.324219 216.113281 51.4375 C 216.679688 50.546875 217.40625 49.78125 218.289062 49.144531 L 218.289062 48.929688 C 217.335938 48.289062 216.484375 47.382812 215.742188 46.210938 C 215.03125 45 214.679688 43.632812 214.679688 42.101562 C 214.679688 39.898438 215.210938 38.085938 216.273438 36.664062 C 217.371094 35.207031 218.785156 34.140625 220.519531 33.464844 C 222.257812 32.753906 224.097656 32.394531 226.042969 32.394531 C 227.601562 32.394531 229.019531 32.609375 230.292969 33.035156 L 240.171875 33.035156 L 240.171875 39.648438 L 236.347656 39.648438 C 236.453125 39.96875 236.542969 40.378906 236.613281 40.875 C 236.71875 41.375 236.773438 41.890625 236.773438 42.421875 C 236.773438 44.519531 236.292969 46.226562 235.339844 47.542969 C 234.382812 48.824219 233.089844 49.765625 231.460938 50.371094 C 229.832031 50.972656 228.027344 51.277344 226.042969 51.277344 C 225.160156 51.277344 224.167969 51.152344 223.070312 50.902344 C 222.644531 51.292969 222.433594 51.808594 222.433594 52.449219 C 222.433594 53.019531 222.714844 53.425781 223.28125 53.675781 C 223.882812 53.925781 224.839844 54.050781 226.152344 54.050781 L 230.132812 54.050781 C 233.460938 54.050781 236.027344 54.601562 237.835938 55.703125 C 239.675781 56.769531 240.597656 58.527344 240.597656 60.980469 C 240.597656 62.902344 239.960938 64.589844 238.683594 66.050781 C 237.445312 67.507812 235.675781 68.644531 233.375 69.460938 C 231.070312 70.28125 228.34375 70.6875 225.195312 70.6875 Z M 226.042969 45.835938 C 226.894531 45.835938 227.585938 45.535156 228.117188 44.929688 C 228.648438 44.324219 228.910156 43.382812 228.910156 42.101562 C 228.910156 40.859375 228.648438 39.953125 228.117188 39.382812 C 227.585938 38.777344 226.894531 38.476562 226.042969 38.476562 C 225.195312 38.476562 224.503906 38.777344 223.972656 39.382812 C 223.441406 39.953125 223.175781 40.859375 223.175781 42.101562 C 223.175781 43.382812 223.441406 44.324219 223.972656 44.929688 C 224.503906 45.535156 225.195312 45.835938 226.042969 45.835938 Z M 226.679688 65.035156 C 228.167969 65.035156 229.40625 64.804688 230.398438 64.34375 C 231.390625 63.914062 231.886719 63.328125 231.886719 62.582031 C 231.886719 61.871094 231.566406 61.425781 230.929688 61.25 C 230.328125 61.070312 229.460938 60.980469 228.328125 60.980469 L 226.257812 60.980469 C 225.195312 60.980469 224.378906 60.945312 223.8125 60.875 C 223.28125 60.839844 222.824219 60.769531 222.433594 60.664062 C 221.796875 61.300781 221.476562 61.941406 221.476562 62.582031 C 221.476562 63.4375 221.953125 64.058594 222.910156 64.449219 C 223.902344 64.839844 225.160156 65.035156 226.679688 65.035156 Z M 254.1875 70.6875 C 252.167969 70.6875 250.308594 70.457031 248.609375 69.996094 C 246.910156 69.570312 245.546875 68.875 244.519531 67.914062 C 243.53125 66.957031 243.035156 65.675781 243.035156 64.074219 C 243.035156 61.976562 244.273438 60.269531 246.75 58.957031 L 246.75 58.742188 C 246.074219 58.238281 245.480469 57.625 245 56.929688 C 244.539062 56.183594 244.308594 55.257812 244.308594 54.15625 C 244.308594 53.230469 244.574219 52.324219 245.105469 51.4375 C 245.671875 50.546875 246.398438 49.78125 247.28125 49.144531 L 247.28125 48.929688 C 246.328125 48.289062 245.476562 47.382812 244.734375 46.210938 C 244.023438 45 243.671875 43.632812 243.671875 42.101562 C 243.671875 39.898438 244.203125 38.085938 245.265625 36.664062 C 246.363281 35.207031 247.777344 34.140625 249.511719 33.464844 C 251.25 32.753906 253.089844 32.394531 255.035156 32.394531 C 256.59375 32.394531 258.011719 32.609375 259.285156 33.035156 L 269.164062 33.035156 L 269.164062 39.648438 L 265.339844 39.648438 C 265.445312 39.96875 265.535156 40.378906 265.605469 40.875 C 265.710938 41.375 265.765625 41.890625 265.765625 42.421875 C 265.765625 44.519531 265.285156 46.226562 264.332031 47.542969 C 263.375 48.824219 262.082031 49.765625 260.453125 50.371094 C 258.824219 50.972656 257.019531 51.277344 255.035156 51.277344 C 254.152344 51.277344 253.160156 51.152344 252.0625 50.902344 C 251.636719 51.292969 251.425781 51.808594 251.425781 52.449219 C 251.425781 53.019531 251.707031 53.425781 252.273438 53.675781 C 252.878906 53.925781 253.832031 54.050781 255.144531 54.050781 L 259.125 54.050781 C 262.453125 54.050781 265.019531 54.601562 266.828125 55.703125 C 268.667969 56.769531 269.589844 58.527344 269.589844 60.980469 C 269.589844 62.902344 268.953125 64.589844 267.675781 66.050781 C 266.4375 67.507812 264.667969 68.644531 262.367188 69.460938 C 260.066406 70.28125 257.339844 70.6875 254.1875 70.6875 Z M 255.035156 45.835938 C 255.886719 45.835938 256.578125 45.535156 257.109375 44.929688 C 257.640625 44.324219 257.90625 43.382812 257.90625 42.101562 C 257.90625 40.859375 257.640625 39.953125 257.109375 39.382812 C 256.578125 38.777344 255.886719 38.476562 255.035156 38.476562 C 254.1875 38.476562 253.496094 38.777344 252.964844 39.382812 C 252.433594 39.953125 252.167969 40.859375 252.167969 42.101562 C 252.167969 43.382812 252.433594 44.324219 252.964844 44.929688 C 253.496094 45.535156 254.1875 45.835938 255.035156 45.835938 Z M 255.675781 65.035156 C 257.160156 65.035156 258.398438 64.804688 259.390625 64.34375 C 260.382812 63.914062 260.878906 63.328125 260.878906 62.582031 C 260.878906 61.871094 260.558594 61.425781 259.921875 61.25 C 259.320312 61.070312 258.453125 60.980469 257.320312 60.980469 L 255.25 60.980469 C 254.1875 60.980469 253.371094 60.945312 252.804688 60.875 C 252.273438 60.839844 251.816406 60.769531 251.425781 60.664062 C 250.789062 61.300781 250.46875 61.941406 250.46875 62.582031 C 250.46875 63.4375 250.949219 64.058594 251.902344 64.449219 C 252.894531 64.839844 254.152344 65.035156 255.675781 65.035156 Z M 273.515625 59.703125 L 273.515625 33.035156 L 282.648438 33.035156 L 282.648438 59.703125 Z M 278.082031 29.730469 C 276.59375 29.730469 275.390625 29.320312 274.46875 28.503906 C 273.550781 27.648438 273.089844 26.53125 273.089844 25.144531 C 273.089844 23.757812 273.550781 22.65625 274.46875 21.835938 C 275.390625 20.984375 276.59375 20.558594 278.082031 20.558594 C 279.570312 20.558594 280.773438 20.984375 281.691406 21.835938 C 282.613281 22.65625 283.074219 23.757812 283.074219 25.144531 C 283.074219 26.53125 282.613281 27.648438 281.691406 28.503906 C 280.773438 29.320312 279.570312 29.730469 278.082031 29.730469 Z M 288.8125 59.703125 L 288.8125 33.035156 L 296.25 33.035156 L 296.886719 36.234375 L 297.097656 36.234375 C 298.160156 35.207031 299.367188 34.316406 300.710938 33.570312 C 302.089844 32.789062 303.683594 32.394531 305.492188 32.394531 C 308.429688 32.394531 310.535156 33.390625 311.8125 35.382812 C 313.121094 37.339844 313.777344 39.96875 313.777344 43.277344 L 313.777344 59.703125 L 304.640625 59.703125 L 304.640625 44.449219 C 304.640625 42.742188 304.429688 41.605469 304.003906 41.035156 C 303.578125 40.46875 302.90625 40.183594 301.984375 40.183594 C 301.136719 40.183594 300.425781 40.359375 299.859375 40.714844 C 299.292969 41.070312 298.65625 41.570312 297.949219 42.210938 L 297.949219 59.703125 Z M 329.390625 70.6875 C 327.375 70.6875 325.515625 70.457031 323.816406 69.996094 C 322.117188 69.570312 320.753906 68.875 319.726562 67.914062 C 318.734375 66.957031 318.238281 65.675781 318.238281 64.074219 C 318.238281 61.976562 319.476562 60.269531 321.957031 58.957031 L 321.957031 58.742188 C 321.277344 58.238281 320.683594 57.625 320.203125 56.929688 C 319.742188 56.183594 319.511719 55.257812 319.511719 54.15625 C 319.511719 53.230469 319.777344 52.324219 320.308594 51.4375 C 320.875 50.546875 321.601562 49.78125 322.488281 49.144531 L 322.488281 48.929688 C 321.53125 48.289062 320.679688 47.382812 319.9375 46.210938 C 319.230469 45 318.875 43.632812 318.875 42.101562 C 318.875 39.898438 319.40625 38.085938 320.46875 36.664062 C 321.566406 35.207031 322.984375 34.140625 324.71875 33.464844 C 326.453125 32.753906 328.292969 32.394531 330.242188 32.394531 C 331.800781 32.394531 333.214844 32.609375 334.488281 33.035156 L 344.367188 33.035156 L 344.367188 39.648438 L 340.542969 39.648438 C 340.652344 39.96875 340.738281 40.378906 340.808594 40.875 C 340.917969 41.375 340.96875 41.890625 340.96875 42.421875 C 340.96875 44.519531 340.492188 46.226562 339.535156 47.542969 C 338.578125 48.824219 337.285156 49.765625 335.660156 50.371094 C 334.03125 50.972656 332.222656 51.277344 330.242188 51.277344 C 329.355469 51.277344 328.363281 51.152344 327.265625 50.902344 C 326.84375 51.292969 326.628906 51.808594 326.628906 52.449219 C 326.628906 53.019531 326.914062 53.425781 327.480469 53.675781 C 328.082031 53.925781 329.039062 54.050781 330.347656 54.050781 L 334.332031 54.050781 C 337.660156 54.050781 340.226562 54.601562 342.03125 55.703125 C 343.871094 56.769531 344.792969 58.527344 344.792969 60.980469 C 344.792969 62.902344 344.15625 64.589844 342.882812 66.050781 C 341.640625 67.507812 339.871094 68.644531 337.570312 69.460938 C 335.269531 70.28125 332.542969 70.6875 329.390625 70.6875 Z M 330.242188 45.835938 C 331.089844 45.835938 331.78125 45.535156 332.3125 44.929688 C 332.84375 44.324219 333.109375 43.382812 333.109375 42.101562 C 333.109375 40.859375 332.84375 39.953125 332.3125 39.382812 C 331.78125 38.777344 331.089844 38.476562 330.242188 38.476562 C 329.390625 38.476562 328.699219 38.777344 328.171875 39.382812 C 327.640625 39.953125 327.375 40.859375 327.375 42.101562 C 327.375 43.382812 327.640625 44.324219 328.171875 44.929688 C 328.699219 45.535156 329.390625 45.835938 330.242188 45.835938 Z M 330.878906 65.035156 C 332.367188 65.035156 333.605469 64.804688 334.597656 64.34375 C 335.585938 63.914062 336.082031 63.328125 336.082031 62.582031 C 336.082031 61.871094 335.765625 61.425781 335.128906 61.25 C 334.527344 61.070312 333.65625 60.980469 332.523438 60.980469 L 330.453125 60.980469 C 329.390625 60.980469 328.578125 60.945312 328.011719 60.875 C 327.480469 60.839844 327.019531 60.769531 326.628906 60.664062 C 325.992188 61.300781 325.675781 61.941406 325.675781 62.582031 C 325.675781 63.4375 326.152344 64.058594 327.109375 64.449219 C 328.097656 64.839844 329.355469 65.035156 330.878906 65.035156 Z M 360.09375 59.703125 L 360.09375 25.035156 L 382.613281 25.035156 L 382.613281 32.714844 L 369.230469 32.714844 L 369.230469 39.328125 L 380.699219 39.328125 L 380.699219 47.007812 L 369.230469 47.007812 L 369.230469 59.703125 Z M 392.601562 60.34375 C 390.9375 60.34375 389.503906 59.96875 388.300781 59.222656 C 387.152344 58.460938 386.21875 57.414062 385.59375 56.183594 C 384.953125 54.9375 384.636719 53.585938 384.636719 52.128906 C 384.636719 49.355469 385.769531 47.1875 388.035156 45.621094 C 390.300781 44.023438 393.984375 42.957031 399.082031 42.421875 C 398.867188 40.574219 397.628906 39.648438 395.363281 39.648438 C 394.40625 39.648438 393.398438 39.84375 392.335938 40.234375 C 391.273438 40.589844 390.054688 41.144531 388.671875 41.890625 L 385.484375 35.917969 C 387.363281 34.777344 389.257812 33.90625 391.167969 33.304688 C 393.113281 32.699219 395.136719 32.394531 397.167969 32.394531 C 400.640625 32.394531 403.347656 33.390625 405.296875 35.382812 C 407.242188 37.339844 408.214844 40.503906 408.214844 44.875 L 408.214844 59.703125 L 400.78125 59.703125 L 400.144531 57.140625 L 399.929688 57.140625 C 398.867188 58.101562 397.734375 58.886719 396.53125 59.488281 C 395.363281 60.058594 394.054688 60.34375 392.601562 60.34375 Z M 395.789062 53.300781 C 396.53125 53.300781 397.152344 53.140625 397.648438 52.824219 C 398.144531 52.46875 398.621094 52.023438 399.082031 51.488281 L 399.082031 47.863281 C 396.921875 48.183594 395.417969 48.664062 394.566406 49.300781 C 393.753906 49.941406 393.34375 50.636719 393.34375 51.382812 C 393.34375 52.664062 394.160156 53.300781 395.789062 53.300781 Z M 426.175781 60.34375 C 423.660156 60.34375 421.394531 59.792969 419.375 58.6875 C 417.359375 57.585938 415.746094 56.003906 414.542969 53.941406 C 413.375 51.84375 412.789062 49.320312 412.789062 46.371094 C 412.789062 43.417969 413.445312 40.910156 414.757812 38.851562 C 416.101562 36.75 417.855469 35.152344 420.015625 34.050781 C 422.171875 32.949219 424.511719 32.394531 427.023438 32.394531 C 428.617188 32.394531 430.050781 32.644531 431.328125 33.144531 C 432.636719 33.640625 433.785156 34.316406 434.777344 35.171875 L 430.53125 41.035156 C 429.964844 40.539062 429.449219 40.199219 428.988281 40.023438 C 428.53125 39.84375 428.046875 39.753906 427.554688 39.757812 C 425.855469 39.757812 424.527344 40.359375 423.570312 41.570312 C 422.617188 42.742188 422.136719 44.34375 422.136719 46.371094 C 422.136719 48.394531 422.632812 50.015625 423.625 51.222656 C 424.617188 52.394531 425.820312 52.984375 427.238281 52.984375 C 427.980469 52.984375 428.707031 52.824219 429.414062 52.503906 C 430.140625 52.15625 430.832031 51.746094 431.484375 51.277344 L 434.992188 57.25 C 433.679688 58.421875 432.230469 59.242188 430.636719 59.703125 C 429.042969 60.128906 427.554688 60.34375 426.175781 60.34375 Z M 449.9375 60.34375 C 447.351562 60.34375 445.015625 59.792969 442.925781 58.6875 C 440.871094 57.585938 439.242188 56.003906 438.039062 53.941406 C 436.835938 51.84375 436.234375 49.320312 436.234375 46.371094 C 436.234375 43.488281 436.835938 41.019531 438.039062 38.957031 C 439.277344 36.859375 440.871094 35.242188 442.820312 34.101562 C 444.765625 32.964844 446.820312 32.394531 448.980469 32.394531 C 451.601562 32.394531 453.761719 32.984375 455.460938 34.15625 C 457.195312 35.292969 458.46875 36.839844 459.285156 38.796875 C 460.132812 40.75 460.558594 42.921875 460.558594 45.304688 C 460.558594 46.085938 460.503906 46.851562 460.398438 47.597656 C 460.328125 48.308594 460.257812 48.824219 460.1875 49.144531 L 445.050781 49.144531 C 445.476562 50.742188 446.234375 51.863281 447.332031 52.503906 C 448.429688 53.105469 449.722656 53.410156 451.210938 53.410156 C 452.910156 53.410156 454.714844 52.875 456.628906 51.808594 L 459.601562 57.25 C 458.1875 58.246094 456.59375 59.007812 454.820312 59.542969 C 453.050781 60.074219 451.421875 60.34375 449.9375 60.34375 Z M 444.945312 43.167969 L 452.804688 43.167969 C 452.804688 42.136719 452.539062 41.25 452.007812 40.503906 C 451.511719 39.722656 450.574219 39.328125 449.191406 39.328125 C 448.199219 39.328125 447.316406 39.632812 446.539062 40.234375 C 445.757812 40.839844 445.226562 41.820312 444.945312 43.167969 Z M 444.945312 43.167969 " fill-opacity="1" fill-rule="nonzero"/></g><g clip-path="url(#acc2e80264)"><path fill="#ffffff" d="M -61.699219 107.96875 L -61.699219 73.304688 L -52.566406 73.304688 L -52.566406 86.210938 L -42.261719 86.210938 L -42.261719 73.304688 L -33.128906 73.304688 L -33.128906 107.96875 L -42.261719 107.96875 L -42.261719 94.210938 L -52.566406 94.210938 L -52.566406 107.96875 Z M -18.167969 108.609375 C -21.074219 108.609375 -23.179688 107.632812 -24.488281 105.675781 C -25.800781 103.6875 -26.453125 101.035156 -26.453125 97.730469 L -26.453125 81.304688 L -17.320312 81.304688 L -17.320312 96.558594 C -17.320312 98.265625 -17.105469 99.402344 -16.683594 99.96875 C -16.222656 100.539062 -15.550781 100.824219 -14.664062 100.824219 C -13.816406 100.824219 -13.105469 100.644531 -12.539062 100.289062 C -11.972656 99.933594 -11.40625 99.332031 -10.839844 98.476562 L -10.839844 81.304688 L -1.707031 81.304688 L -1.707031 107.96875 L -9.140625 107.96875 L -9.777344 104.449219 L -9.992188 104.449219 C -11.054688 105.730469 -12.238281 106.742188 -13.550781 107.492188 C -14.824219 108.238281 -16.363281 108.609375 -18.167969 108.609375 Z M 14.128906 118.957031 C 12.109375 118.957031 10.25 118.726562 8.550781 118.261719 C 6.851562 117.835938 5.488281 117.144531 4.460938 116.183594 C 3.46875 115.222656 2.976562 113.941406 2.976562 112.34375 C 2.976562 110.246094 4.214844 108.539062 6.691406 107.222656 L 6.691406 107.011719 C 6.011719 106.507812 5.421875 105.894531 4.941406 105.195312 C 4.480469 104.449219 4.25 103.527344 4.25 102.421875 C 4.25 101.5 4.515625 100.59375 5.046875 99.703125 C 5.613281 98.816406 6.339844 98.050781 7.222656 97.410156 L 7.222656 97.195312 C 6.265625 96.558594 5.417969 95.652344 4.675781 94.476562 C 3.964844 93.269531 3.613281 91.898438 3.613281 90.371094 C 3.613281 88.167969 4.144531 86.351562 5.207031 84.929688 C 6.304688 83.472656 7.71875 82.40625 9.453125 81.730469 C 11.1875 81.019531 13.03125 80.664062 14.976562 80.664062 C 16.535156 80.664062 17.953125 80.878906 19.226562 81.304688 L 29.105469 81.304688 L 29.105469 87.917969 L 25.28125 87.917969 C 25.386719 88.238281 25.476562 88.644531 25.546875 89.144531 C 25.652344 89.640625 25.707031 90.15625 25.707031 90.691406 C 25.707031 92.789062 25.226562 94.496094 24.273438 95.8125 C 23.316406 97.089844 22.023438 98.03125 20.394531 98.636719 C 18.765625 99.242188 16.960938 99.542969 14.976562 99.542969 C 14.09375 99.542969 13.101562 99.417969 12.003906 99.171875 C 11.578125 99.5625 11.367188 100.078125 11.367188 100.71875 C 11.367188 101.285156 11.648438 101.695312 12.214844 101.945312 C 12.816406 102.191406 13.773438 102.316406 15.082031 102.316406 L 19.066406 102.316406 C 22.394531 102.316406 24.960938 102.867188 26.769531 103.96875 C 28.609375 105.035156 29.53125 106.796875 29.53125 109.25 C 29.53125 111.171875 28.890625 112.859375 27.617188 114.316406 C 26.378906 115.773438 24.609375 116.910156 22.304688 117.730469 C 20.003906 118.546875 17.277344 118.957031 14.128906 118.957031 Z M 14.976562 94.105469 C 15.828125 94.105469 16.515625 93.800781 17.046875 93.195312 C 17.578125 92.59375 17.84375 91.652344 17.84375 90.371094 C 17.84375 89.125 17.578125 88.21875 17.046875 87.652344 C 16.515625 87.046875 15.828125 86.746094 14.976562 86.746094 C 14.128906 86.746094 13.4375 87.046875 12.90625 87.652344 C 12.375 88.21875 12.109375 89.125 12.109375 90.371094 C 12.109375 91.652344 12.375 92.59375 12.90625 93.195312 C 13.4375 93.800781 14.128906 94.105469 14.976562 94.105469 Z M 15.613281 113.304688 C 17.101562 113.304688 18.339844 113.070312 19.332031 112.609375 C 20.324219 112.183594 20.820312 111.597656 20.820312 110.851562 C 20.820312 110.140625 20.5 109.695312 19.863281 109.515625 C 19.261719 109.339844 18.394531 109.25 17.261719 109.25 L 15.191406 109.25 C 14.128906 109.25 13.3125 109.214844 12.746094 109.144531 C 12.214844 109.109375 11.753906 109.035156 11.367188 108.929688 C 10.730469 109.570312 10.410156 110.210938 10.410156 110.851562 C 10.410156 111.703125 10.886719 112.324219 11.84375 112.714844 C 12.835938 113.109375 14.09375 113.304688 15.613281 113.304688 Z M 43.121094 118.957031 C 41.101562 118.957031 39.242188 118.726562 37.542969 118.261719 C 35.84375 117.835938 34.480469 117.144531 33.453125 116.183594 C 32.464844 115.222656 31.96875 113.941406 31.96875 112.34375 C 31.96875 110.246094 33.207031 108.539062 35.683594 107.222656 L 35.683594 107.011719 C 35.007812 106.507812 34.414062 105.894531 33.933594 105.195312 C 33.472656 104.449219 33.242188 103.527344 33.242188 102.421875 C 33.242188 101.5 33.507812 100.59375 34.039062 99.703125 C 34.605469 98.816406 35.332031 98.050781 36.214844 97.410156 L 36.214844 97.195312 C 35.261719 96.558594 34.410156 95.652344 33.667969 94.476562 C 32.957031 93.269531 32.605469 91.898438 32.605469 90.371094 C 32.605469 88.167969 33.136719 86.351562 34.199219 84.929688 C 35.296875 83.472656 36.710938 82.40625 38.445312 81.730469 C 40.179688 81.019531 42.023438 80.664062 43.96875 80.664062 C 45.527344 80.664062 46.945312 80.878906 48.21875 81.304688 L 58.097656 81.304688 L 58.097656 87.917969 L 54.273438 87.917969 C 54.378906 88.238281 54.46875 88.644531 54.539062 89.144531 C 54.644531 89.640625 54.699219 90.15625 54.699219 90.691406 C 54.699219 92.789062 54.21875 94.496094 53.265625 95.8125 C 52.308594 97.089844 51.015625 98.03125 49.386719 98.636719 C 47.757812 99.242188 45.953125 99.542969 43.96875 99.542969 C 43.085938 99.542969 42.09375 99.417969 40.996094 99.171875 C 40.570312 99.5625 40.359375 100.078125 40.359375 100.71875 C 40.359375 101.285156 40.640625 101.695312 41.207031 101.945312 C 41.808594 102.191406 42.765625 102.316406 44.074219 102.316406 L 48.058594 102.316406 C 51.386719 102.316406 53.953125 102.867188 55.761719 103.96875 C 57.601562 105.035156 58.523438 106.796875 58.523438 109.25 C 58.523438 111.171875 57.882812 112.859375 56.609375 114.316406 C 55.371094 115.773438 53.601562 116.910156 51.300781 117.730469 C 48.996094 118.546875 46.273438 118.957031 43.121094 118.957031 Z M 43.96875 94.105469 C 44.820312 94.105469 45.511719 93.800781 46.042969 93.195312 C 46.574219 92.59375 46.839844 91.652344 46.839844 90.371094 C 46.839844 89.125 46.574219 88.21875 46.042969 87.652344 C 45.511719 87.046875 44.820312 86.746094 43.96875 86.746094 C 43.121094 86.746094 42.429688 87.046875 41.898438 87.652344 C 41.367188 88.21875 41.101562 89.125 41.101562 90.371094 C 41.101562 91.652344 41.367188 92.59375 41.898438 93.195312 C 42.429688 93.800781 43.121094 94.105469 43.96875 94.105469 Z M 44.609375 113.304688 C 46.09375 113.304688 47.332031 113.070312 48.324219 112.609375 C 49.316406 112.183594 49.8125 111.597656 49.8125 110.851562 C 49.8125 110.140625 49.492188 109.695312 48.855469 109.515625 C 48.253906 109.339844 47.386719 109.25 46.253906 109.25 L 44.183594 109.25 C 43.121094 109.25 42.304688 109.214844 41.738281 109.144531 C 41.207031 109.109375 40.746094 109.035156 40.359375 108.929688 C 39.722656 109.570312 39.402344 110.210938 39.402344 110.851562 C 39.402344 111.703125 39.878906 112.324219 40.835938 112.714844 C 41.828125 113.109375 43.085938 113.304688 44.609375 113.304688 Z M 62.445312 107.96875 L 62.445312 81.304688 L 71.582031 81.304688 L 71.582031 107.96875 Z M 67.015625 77.996094 C 65.527344 77.996094 64.324219 77.589844 63.402344 76.769531 C 62.480469 75.917969 62.023438 74.796875 62.023438 73.410156 C 62.023438 72.023438 62.480469 70.921875 63.402344 70.105469 C 64.324219 69.25 65.527344 68.824219 67.015625 68.824219 C 68.5 68.824219 69.707031 69.25 70.625 70.105469 C 71.546875 70.921875 72.007812 72.023438 72.007812 73.410156 C 72.007812 74.796875 71.546875 75.917969 70.625 76.769531 C 69.707031 77.589844 68.5 77.996094 67.015625 77.996094 Z M 77.746094 107.96875 L 77.746094 81.304688 L 85.183594 81.304688 L 85.820312 84.503906 L 86.03125 84.503906 C 87.09375 83.472656 88.296875 82.585938 89.644531 81.835938 C 91.023438 81.054688 92.617188 80.664062 94.421875 80.664062 C 97.363281 80.664062 99.46875 81.660156 100.742188 83.652344 C 102.054688 85.605469 102.707031 88.238281 102.707031 91.542969 L 102.707031 107.96875 L 93.574219 107.96875 L 93.574219 92.71875 C 93.574219 91.011719 93.359375 89.871094 92.9375 89.304688 C 92.511719 88.734375 91.839844 88.449219 90.917969 88.449219 C 90.070312 88.449219 89.359375 88.628906 88.792969 88.984375 C 88.226562 89.339844 87.589844 89.835938 86.882812 90.476562 L 86.882812 107.96875 Z M 118.324219 118.957031 C 116.304688 118.957031 114.449219 118.726562 112.746094 118.261719 C 111.046875 117.835938 109.683594 117.144531 108.660156 116.183594 C 107.667969 115.222656 107.171875 113.941406 107.171875 112.34375 C 107.171875 110.246094 108.410156 108.539062 110.890625 107.222656 L 110.890625 107.011719 C 110.210938 106.507812 109.617188 105.894531 109.136719 105.195312 C 108.675781 104.449219 108.445312 103.527344 108.445312 102.421875 C 108.445312 101.5 108.710938 100.59375 109.242188 99.703125 C 109.808594 98.816406 110.535156 98.050781 111.421875 97.410156 L 111.421875 97.195312 C 110.464844 96.558594 109.613281 95.652344 108.871094 94.476562 C 108.164062 93.269531 107.808594 91.898438 107.808594 90.371094 C 107.808594 88.167969 108.339844 86.351562 109.402344 84.929688 C 110.5 83.472656 111.917969 82.40625 113.652344 81.730469 C 115.386719 81.019531 117.226562 80.664062 119.175781 80.664062 C 120.730469 80.664062 122.148438 80.878906 123.421875 81.304688 L 133.300781 81.304688 L 133.300781 87.917969 L 129.476562 87.917969 C 129.582031 88.238281 129.671875 88.644531 129.742188 89.144531 C 129.847656 89.640625 129.902344 90.15625 129.902344 90.691406 C 129.902344 92.789062 129.425781 94.496094 128.46875 95.8125 C 127.511719 97.089844 126.21875 98.03125 124.589844 98.636719 C 122.960938 99.242188 121.15625 99.542969 119.175781 99.542969 C 118.289062 99.542969 117.296875 99.417969 116.199219 99.171875 C 115.773438 99.5625 115.5625 100.078125 115.5625 100.71875 C 115.5625 101.285156 115.847656 101.695312 116.414062 101.945312 C 117.015625 102.191406 117.96875 102.316406 119.28125 102.316406 L 123.265625 102.316406 C 126.59375 102.316406 129.160156 102.867188 130.964844 103.96875 C 132.804688 105.035156 133.726562 106.796875 133.726562 109.25 C 133.726562 111.171875 133.089844 112.859375 131.8125 114.316406 C 130.574219 115.773438 128.804688 116.910156 126.503906 117.730469 C 124.203125 118.546875 121.476562 118.957031 118.324219 118.957031 Z M 119.175781 94.105469 C 120.023438 94.105469 120.714844 93.800781 121.246094 93.195312 C 121.777344 92.59375 122.042969 91.652344 122.042969 90.371094 C 122.042969 89.125 121.777344 88.21875 121.246094 87.652344 C 120.714844 87.046875 120.023438 86.746094 119.175781 86.746094 C 118.324219 86.746094 117.632812 87.046875 117.101562 87.652344 C 116.570312 88.21875 116.304688 89.125 116.304688 90.371094 C 116.304688 91.652344 116.570312 92.59375 117.101562 93.195312 C 117.632812 93.800781 118.324219 94.105469 119.175781 94.105469 Z M 119.8125 113.304688 C 121.296875 113.304688 122.539062 113.070312 123.527344 112.609375 C 124.519531 112.183594 125.015625 111.597656 125.015625 110.851562 C 125.015625 110.140625 124.699219 109.695312 124.0625 109.515625 C 123.457031 109.339844 122.589844 109.25 121.457031 109.25 L 119.386719 109.25 C 118.324219 109.25 117.511719 109.214844 116.945312 109.144531 C 116.414062 109.109375 115.953125 109.035156 115.5625 108.929688 C 114.925781 109.570312 114.605469 110.210938 114.605469 110.851562 C 114.605469 111.703125 115.085938 112.324219 116.039062 112.714844 C 117.03125 113.109375 118.289062 113.304688 119.8125 113.304688 Z M 149.027344 107.96875 L 149.027344 73.304688 L 171.546875 73.304688 L 171.546875 80.984375 L 158.160156 80.984375 L 158.160156 87.597656 L 169.632812 87.597656 L 169.632812 95.277344 L 158.160156 95.277344 L 158.160156 107.96875 Z M 181.535156 108.609375 C 179.871094 108.609375 178.4375 108.238281 177.234375 107.492188 C 176.085938 106.730469 175.152344 105.683594 174.523438 104.449219 C 173.886719 103.207031 173.570312 101.855469 173.570312 100.398438 C 173.570312 97.625 174.703125 95.457031 176.96875 93.890625 C 179.234375 92.289062 182.917969 91.222656 188.015625 90.691406 C 187.800781 88.839844 186.5625 87.917969 184.296875 87.917969 C 183.339844 87.917969 182.332031 88.113281 181.269531 88.503906 C 180.207031 88.859375 178.984375 89.410156 177.605469 90.15625 L 174.417969 84.183594 C 176.296875 83.046875 178.1875 82.175781 180.101562 81.570312 C 182.042969 80.96875 184.066406 80.660156 186.101562 80.664062 C 189.574219 80.664062 192.28125 81.660156 194.230469 83.652344 C 196.175781 85.605469 197.148438 88.769531 197.148438 93.144531 L 197.148438 107.96875 L 189.714844 107.96875 L 189.078125 105.410156 L 188.863281 105.410156 C 187.800781 106.371094 186.667969 107.152344 185.464844 107.757812 C 184.296875 108.324219 182.988281 108.609375 181.535156 108.609375 Z M 184.722656 101.570312 C 185.464844 101.570312 186.085938 101.410156 186.582031 101.089844 C 187.074219 100.734375 187.554688 100.289062 188.015625 99.757812 L 188.015625 96.128906 C 185.855469 96.449219 184.351562 96.929688 183.5 97.570312 C 182.6875 98.210938 182.277344 98.902344 182.277344 99.652344 C 182.277344 100.929688 183.09375 101.570312 184.722656 101.570312 Z M 215.109375 108.609375 C 212.59375 108.609375 210.328125 108.058594 208.308594 106.957031 C 206.292969 105.855469 204.679688 104.273438 203.476562 102.210938 C 202.308594 100.113281 201.722656 97.589844 201.722656 94.636719 C 201.722656 91.6875 202.378906 89.179688 203.6875 87.117188 C 205.035156 85.019531 206.789062 83.421875 208.945312 82.316406 C 211.105469 81.214844 213.441406 80.664062 215.957031 80.664062 C 217.550781 80.664062 218.984375 80.914062 220.257812 81.410156 C 221.570312 81.910156 222.71875 82.585938 223.710938 83.4375 L 219.460938 89.304688 C 218.894531 88.804688 218.382812 88.46875 217.921875 88.289062 C 217.464844 88.113281 216.980469 88.023438 216.488281 88.023438 C 214.789062 88.023438 213.460938 88.628906 212.503906 89.835938 C 211.550781 91.011719 211.070312 92.609375 211.070312 94.636719 C 211.070312 96.664062 211.566406 98.28125 212.558594 99.492188 C 213.550781 100.664062 214.753906 101.25 216.167969 101.25 C 216.914062 101.25 217.640625 101.089844 218.347656 100.769531 C 219.074219 100.425781 219.765625 100.015625 220.417969 99.542969 L 223.925781 105.515625 C 222.613281 106.691406 221.164062 107.507812 219.570312 107.96875 C 217.976562 108.398438 216.488281 108.609375 215.109375 108.609375 Z M 238.871094 108.609375 C 236.285156 108.609375 233.949219 108.058594 231.859375 106.957031 C 229.804688 105.855469 228.175781 104.273438 226.972656 102.210938 C 225.769531 100.113281 225.167969 97.589844 225.167969 94.636719 C 225.167969 91.757812 225.769531 89.285156 226.972656 87.222656 C 228.210938 85.125 229.804688 83.507812 231.753906 82.371094 C 233.699219 81.234375 235.753906 80.664062 237.914062 80.664062 C 240.535156 80.664062 242.695312 81.25 244.390625 82.425781 C 246.128906 83.5625 247.402344 85.109375 248.214844 87.0625 C 249.066406 89.019531 249.492188 91.1875 249.492188 93.570312 C 249.492188 94.351562 249.4375 95.117188 249.332031 95.863281 C 249.261719 96.574219 249.191406 97.089844 249.121094 97.410156 L 233.984375 97.410156 C 234.40625 99.011719 235.167969 100.128906 236.265625 100.769531 C 237.363281 101.375 238.65625 101.675781 240.144531 101.675781 C 241.84375 101.675781 243.648438 101.144531 245.5625 100.078125 L 248.535156 105.515625 C 247.117188 106.511719 245.527344 107.277344 243.753906 107.808594 C 241.984375 108.34375 240.355469 108.609375 238.871094 108.609375 Z M 233.875 91.4375 L 241.738281 91.4375 C 241.738281 90.40625 241.472656 89.515625 240.941406 88.769531 C 240.445312 87.988281 239.507812 87.597656 238.125 87.597656 C 237.132812 87.597656 236.25 87.898438 235.46875 88.503906 C 234.691406 89.109375 234.160156 90.085938 233.875 91.4375 Z M 233.875 91.4375 " fill-opacity="1" fill-rule="nonzero"/></g></svg>