<svg xmlns="http://www.w3.org/2000/svg" xmlns:xlink="http://www.w3.org/1999/xlink" width="448" zoomAndPan="magnify" viewBox="0 0 336 131.999998" height="176" preserveAspectRatio="xMidYMid meet" version="1.0"><defs><clipPath id="faa15ecf58"><path d="M 138 20 L 335.386719 20 L 335.386719 71 L 138 71 Z M 138 20 " clip-rule="nonzero"/></clipPath><clipPath id="540881a605"><path d="M 132.886719 68 L 239 68 L 239 120 L 132.886719 120 Z M 132.886719 68 " clip-rule="nonzero"/></clipPath></defs><path fill="#ffffff" d="M 118.289062 88.542969 C 118.015625 87.503906 117.566406 86.515625 116.96875 85.625 C 117.097656 85.152344 117.195312 84.675781 117.261719 84.191406 C 117.6875 81.128906 116.625 78.324219 114.621094 76.152344 C 113.539062 74.96875 112.375 74.1875 111.144531 73.707031 C 111.953125 70.25 112.359375 66.710938 112.363281 63.160156 C 112.363281 61.539062 112.269531 59.949219 112.117188 58.386719 C 112.039062 57.605469 111.941406 56.824219 111.828125 56.046875 C 111.472656 53.753906 110.953125 51.492188 110.261719 49.273438 C 109.8125 47.820312 109.289062 46.386719 108.695312 44.980469 C 107.808594 42.902344 106.773438 40.886719 105.597656 38.957031 C 104.828125 37.671875 103.988281 36.425781 103.082031 35.234375 C 102.640625 34.628906 102.179688 34.039062 101.695312 33.464844 C 100.273438 31.734375 98.726562 30.109375 97.066406 28.601562 C 96.515625 28.09375 95.949219 27.605469 95.367188 27.136719 C 94.792969 26.65625 94.207031 26.195312 93.609375 25.75 C 92.410156 24.855469 91.167969 24.015625 89.886719 23.234375 C 82.824219 18.941406 74.535156 16.480469 65.679688 16.480469 C 39.894531 16.480469 19 37.378906 19 63.160156 C 18.996094 66.757812 19.414062 70.339844 20.238281 73.839844 C 19.132812 74.320312 18.070312 75.070312 17.085938 76.152344 C 15.085938 78.324219 14.023438 81.117188 14.449219 84.179688 C 14.511719 84.667969 14.609375 85.148438 14.738281 85.625 C 14.140625 86.515625 13.695312 87.503906 13.417969 88.542969 C 12.804688 90.882812 13.007812 92.988281 13.789062 94.835938 C 12.9375 97.253906 13.152344 99.824219 14.257812 102.058594 C 15.0625 103.691406 16.214844 104.957031 17.632812 106.085938 C 19.324219 107.425781 21.4375 108.566406 23.984375 109.660156 C 27.027344 110.957031 30.738281 112.175781 32.425781 112.625 C 36.789062 113.753906 40.96875 114.46875 45.207031 114.503906 C 51.246094 114.558594 56.445312 113.140625 60.167969 109.507812 C 61.996094 109.730469 63.839844 109.84375 65.679688 109.84375 C 67.628906 109.835938 69.570312 109.714844 71.503906 109.476562 C 75.21875 113.132812 80.4375 114.5625 86.496094 114.507812 C 90.734375 114.472656 94.917969 113.757812 99.265625 112.625 C 100.964844 112.179688 104.675781 110.960938 107.71875 109.664062 C 110.269531 108.566406 112.382812 107.429688 114.082031 106.089844 C 115.492188 104.957031 116.640625 103.695312 117.449219 102.0625 C 118.566406 99.828125 118.765625 97.253906 117.929688 94.839844 C 118.703125 92.992188 118.902344 90.878906 118.289062 88.542969 Z M 113.960938 94.679688 C 114.820312 96.308594 114.875 98.144531 114.117188 99.855469 C 112.972656 102.449219 110.125 104.488281 104.59375 106.683594 C 101.15625 108.046875 98.003906 108.917969 97.976562 108.925781 C 93.429688 110.105469 89.316406 110.707031 85.753906 110.707031 C 79.855469 110.707031 75.46875 109.078125 72.6875 105.863281 C 67.980469 106.667969 63.175781 106.695312 58.460938 105.945312 C 55.675781 109.105469 51.3125 110.707031 45.464844 110.707031 C 41.902344 110.707031 37.789062 110.105469 33.238281 108.925781 C 33.210938 108.917969 30.0625 108.046875 26.625 106.683594 C 21.09375 104.488281 18.246094 102.449219 17.097656 99.855469 C 16.34375 98.144531 16.398438 96.308594 17.253906 94.679688 C 17.335938 94.53125 17.417969 94.382812 17.511719 94.238281 C 16.996094 93.46875 16.652344 92.597656 16.5 91.683594 C 16.347656 90.769531 16.390625 89.835938 16.625 88.9375 C 16.964844 87.644531 17.667969 86.570312 18.621094 85.796875 C 18.164062 85.039062 17.859375 84.199219 17.734375 83.324219 C 17.460938 81.421875 18.09375 79.519531 19.515625 77.96875 C 20.621094 76.761719 22.1875 76.097656 23.917969 76.097656 L 23.964844 76.097656 C 22.660156 71.910156 21.996094 67.546875 22 63.160156 C 22 39.234375 41.398438 19.832031 65.332031 19.832031 C 89.261719 19.832031 108.660156 39.230469 108.660156 63.160156 C 108.664062 67.558594 107.996094 71.933594 106.683594 76.132812 C 106.890625 76.109375 107.097656 76.101562 107.296875 76.101562 C 109.03125 76.101562 110.597656 76.765625 111.703125 77.96875 C 113.125 79.519531 113.757812 81.421875 113.480469 83.324219 C 113.355469 84.203125 113.054688 85.042969 112.59375 85.796875 C 113.550781 86.570312 114.253906 87.644531 114.59375 88.941406 C 114.828125 89.835938 114.871094 90.773438 114.71875 91.6875 C 114.566406 92.597656 114.222656 93.46875 113.707031 94.242188 C 113.796875 94.382812 113.882812 94.53125 113.960938 94.679688 Z M 113.960938 94.679688 " fill-opacity="1" fill-rule="nonzero"/><path fill="#ff9d00" d="M 113.707031 94.242188 C 114.222656 93.46875 114.566406 92.597656 114.71875 91.6875 C 114.871094 90.773438 114.828125 89.835938 114.59375 88.941406 C 114.253906 87.644531 113.550781 86.570312 112.59375 85.796875 C 113.054688 85.042969 113.355469 84.203125 113.480469 83.324219 C 113.757812 81.421875 113.125 79.519531 111.703125 77.96875 C 110.597656 76.765625 109.03125 76.101562 107.296875 76.101562 C 107.097656 76.101562 106.890625 76.109375 106.683594 76.132812 C 107.996094 71.933594 108.660156 67.558594 108.65625 63.160156 C 108.65625 39.234375 89.257812 19.832031 65.328125 19.832031 C 41.398438 19.832031 22 39.230469 22 63.160156 C 21.996094 67.546875 22.65625 71.910156 23.964844 76.097656 L 23.917969 76.097656 C 22.183594 76.097656 20.621094 76.761719 19.511719 77.96875 C 18.089844 79.519531 17.457031 81.421875 17.734375 83.324219 C 17.859375 84.199219 18.160156 85.042969 18.621094 85.796875 C 17.667969 86.570312 16.964844 87.644531 16.621094 88.9375 C 16.386719 89.835938 16.34375 90.769531 16.5 91.683594 C 16.652344 92.597656 16.996094 93.46875 17.507812 94.242188 C 17.417969 94.382812 17.335938 94.53125 17.253906 94.683594 C 16.398438 96.308594 16.34375 98.144531 17.097656 99.855469 C 18.246094 102.449219 21.09375 104.492188 26.625 106.683594 C 30.0625 108.046875 33.210938 108.921875 33.238281 108.929688 C 37.789062 110.109375 41.902344 110.707031 45.464844 110.707031 C 51.3125 110.707031 55.675781 109.105469 58.460938 105.945312 C 63.175781 106.695312 67.980469 106.667969 72.6875 105.867188 C 75.46875 109.078125 79.855469 110.707031 85.753906 110.707031 C 89.316406 110.707031 93.429688 110.109375 97.976562 108.929688 C 98.003906 108.921875 101.152344 108.046875 104.59375 106.683594 C 110.125 104.492188 112.972656 102.449219 114.117188 99.855469 C 114.875 98.144531 114.820312 96.308594 113.960938 94.683594 C 113.882812 94.53125 113.796875 94.382812 113.707031 94.242188 Z M 56.464844 101 C 56.226562 101.417969 55.96875 101.828125 55.695312 102.226562 C 54.976562 103.28125 54.027344 104.085938 52.929688 104.6875 C 50.828125 105.832031 48.167969 106.234375 45.464844 106.234375 C 41.191406 106.234375 36.816406 105.234375 34.363281 104.597656 C 34.242188 104.566406 19.324219 100.351562 21.210938 96.765625 C 21.53125 96.164062 22.050781 95.921875 22.710938 95.921875 C 25.371094 95.921875 30.214844 99.882812 32.292969 99.882812 C 32.757812 99.882812 33.085938 99.683594 33.222656 99.199219 C 34.109375 96.019531 19.742188 94.683594 20.949219 90.078125 C 21.164062 89.261719 21.742188 88.929688 22.558594 88.929688 C 26.074219 88.929688 33.964844 95.113281 35.617188 95.113281 C 35.742188 95.113281 35.832031 95.074219 35.882812 94.996094 C 35.890625 94.984375 35.894531 94.976562 35.902344 94.960938 C 36.675781 93.683594 36.234375 92.753906 30.925781 89.503906 L 30.417969 89.191406 C 24.578125 85.65625 20.476562 83.53125 22.808594 80.992188 C 23.078125 80.699219 23.457031 80.570312 23.917969 80.570312 C 24.464844 80.570312 25.128906 80.753906 25.859375 81.0625 C 28.945312 82.363281 33.21875 85.910156 35.003906 87.457031 C 35.285156 87.699219 35.566406 87.945312 35.84375 88.195312 C 35.84375 88.195312 38.101562 90.546875 39.46875 90.546875 C 39.785156 90.546875 40.050781 90.421875 40.234375 90.117188 C 41.203125 88.480469 31.226562 80.921875 30.664062 77.804688 C 30.285156 75.691406 30.933594 74.621094 32.132812 74.621094 C 32.703125 74.621094 33.398438 74.863281 34.167969 75.351562 C 36.550781 76.863281 41.15625 84.773438 42.839844 87.851562 C 43.40625 88.882812 44.371094 89.316406 45.238281 89.316406 C 46.964844 89.316406 48.3125 87.605469 45.398438 85.425781 C 41.015625 82.148438 42.554688 76.792969 44.644531 76.460938 C 44.734375 76.449219 44.824219 76.441406 44.914062 76.441406 C 46.816406 76.441406 47.652344 79.71875 47.652344 79.71875 C 47.652344 79.71875 50.109375 85.890625 54.332031 90.109375 C 58.164062 93.9375 58.699219 97.078125 56.464844 101 Z M 70.121094 101.722656 L 69.898438 101.75 L 69.527344 101.792969 C 69.332031 101.8125 69.132812 101.832031 68.9375 101.847656 L 68.746094 101.867188 L 68.570312 101.882812 L 68.320312 101.902344 L 68.042969 101.921875 L 67.769531 101.9375 L 67.707031 101.941406 C 67.636719 101.949219 67.566406 101.953125 67.492188 101.957031 L 67.398438 101.960938 C 67.316406 101.964844 67.230469 101.96875 67.144531 101.972656 L 66.847656 101.984375 L 66.574219 101.996094 L 66.394531 102 L 66.304688 102 C 66.246094 102 66.191406 102.003906 66.132812 102.003906 L 66.046875 102.003906 C 65.988281 102.003906 65.933594 102.003906 65.875 102.007812 L 65.328125 102.007812 C 65.074219 102.007812 64.824219 102.007812 64.574219 102 L 64.371094 101.996094 C 64.3125 101.996094 64.253906 101.996094 64.199219 101.992188 L 63.980469 101.988281 L 63.714844 101.976562 L 63.472656 101.964844 L 63.414062 101.960938 L 63.183594 101.949219 C 63.117188 101.949219 63.054688 101.945312 62.992188 101.941406 L 62.84375 101.929688 C 62.65625 101.917969 62.472656 101.90625 62.285156 101.890625 L 62.089844 101.875 C 62.007812 101.871094 61.925781 101.863281 61.84375 101.855469 C 61.75 101.847656 61.652344 101.835938 61.558594 101.828125 C 61.398438 101.8125 61.238281 101.796875 61.078125 101.78125 L 61.070312 101.78125 C 63.410156 96.554688 62.226562 91.671875 57.492188 86.941406 C 54.386719 83.839844 52.320312 79.257812 51.890625 78.253906 C 51.023438 75.277344 48.730469 71.96875 44.917969 71.96875 C 44.59375 71.96875 44.273438 71.996094 43.953125 72.046875 C 42.28125 72.308594 40.824219 73.269531 39.78125 74.714844 C 38.65625 73.316406 37.5625 72.203125 36.570312 71.574219 C 35.078125 70.628906 33.589844 70.148438 32.140625 70.148438 C 30.328125 70.148438 28.710938 70.890625 27.582031 72.242188 L 27.554688 72.273438 C 27.535156 72.1875 27.511719 72.097656 27.492188 72.007812 L 27.488281 71.996094 C 27.273438 71.078125 27.09375 70.152344 26.949219 69.222656 C 26.949219 69.214844 26.949219 69.210938 26.945312 69.203125 C 26.933594 69.132812 26.925781 69.0625 26.914062 68.992188 C 26.882812 68.785156 26.851562 68.574219 26.824219 68.367188 C 26.8125 68.273438 26.800781 68.175781 26.789062 68.082031 L 26.753906 67.796875 C 26.742188 67.703125 26.730469 67.617188 26.722656 67.527344 L 26.71875 67.503906 C 26.679688 67.136719 26.640625 66.765625 26.613281 66.394531 L 26.601562 66.253906 L 26.582031 66.011719 C 26.578125 65.945312 26.570312 65.878906 26.566406 65.8125 C 26.566406 65.796875 26.566406 65.78125 26.566406 65.765625 C 26.550781 65.582031 26.542969 65.394531 26.53125 65.207031 C 26.527344 65.109375 26.523438 65.015625 26.515625 64.917969 L 26.507812 64.664062 L 26.503906 64.585938 L 26.496094 64.351562 L 26.492188 64.152344 C 26.492188 64.074219 26.488281 63.992188 26.484375 63.914062 C 26.484375 63.835938 26.484375 63.746094 26.480469 63.664062 C 26.480469 63.578125 26.480469 63.496094 26.480469 63.414062 C 26.476562 63.328125 26.480469 63.246094 26.480469 63.160156 C 26.480469 41.703125 43.875 24.308594 65.335938 24.308594 C 86.796875 24.308594 104.191406 41.703125 104.191406 63.160156 L 104.191406 63.664062 C 104.191406 63.746094 104.1875 63.832031 104.1875 63.914062 C 104.1875 63.984375 104.183594 64.050781 104.183594 64.121094 C 104.183594 64.183594 104.179688 64.246094 104.175781 64.304688 C 104.175781 64.382812 104.171875 64.460938 104.171875 64.539062 L 104.171875 64.546875 L 104.160156 64.820312 C 104.15625 64.898438 104.152344 64.976562 104.148438 65.058594 L 104.144531 65.113281 L 104.132812 65.367188 C 104.101562 65.914062 104.058594 66.457031 104.007812 67 L 104.007812 67.007812 C 104 67.097656 103.992188 67.1875 103.980469 67.273438 L 103.957031 67.484375 L 103.914062 67.898438 L 103.886719 68.105469 L 103.855469 68.351562 C 103.84375 68.441406 103.832031 68.53125 103.816406 68.621094 C 103.804688 68.71875 103.789062 68.820312 103.773438 68.917969 L 103.738281 69.152344 L 103.695312 69.421875 C 103.683594 69.507812 103.667969 69.597656 103.652344 69.683594 C 103.632812 69.773438 103.621094 69.863281 103.605469 69.949219 C 103.574219 70.128906 103.542969 70.304688 103.507812 70.480469 C 103.457031 70.742188 103.402344 71.003906 103.347656 71.265625 L 103.292969 71.527344 C 103.273438 71.613281 103.253906 71.699219 103.234375 71.789062 C 102.140625 70.726562 100.691406 70.144531 99.097656 70.144531 C 97.644531 70.144531 96.15625 70.625 94.664062 71.570312 C 93.675781 72.199219 92.582031 73.3125 91.457031 74.714844 C 90.410156 73.265625 88.953125 72.304688 87.28125 72.042969 C 86.964844 71.992188 86.640625 71.964844 86.320312 71.964844 C 82.503906 71.964844 80.210938 75.273438 79.34375 78.25 C 78.914062 79.257812 76.847656 83.835938 73.738281 86.941406 C 69.007812 91.65625 67.8125 96.515625 70.121094 101.722656 Z M 110.234375 91.257812 L 110.21875 91.304688 C 110.179688 91.40625 110.132812 91.507812 110.082031 91.605469 C 110.042969 91.675781 110.003906 91.746094 109.957031 91.816406 C 109.871094 91.941406 109.777344 92.0625 109.675781 92.179688 C 109.652344 92.207031 109.628906 92.230469 109.601562 92.257812 C 109.566406 92.296875 109.527344 92.335938 109.492188 92.375 C 108.800781 93.058594 107.75 93.660156 106.558594 94.207031 C 106.425781 94.269531 106.289062 94.332031 106.148438 94.390625 L 106.011719 94.453125 C 105.921875 94.492188 105.828125 94.535156 105.730469 94.574219 C 105.640625 94.613281 105.546875 94.652344 105.449219 94.691406 L 105.164062 94.808594 C 104.496094 95.085938 103.808594 95.347656 103.140625 95.605469 L 102.855469 95.71875 L 102.570312 95.828125 C 102.382812 95.902344 102.199219 95.976562 102.015625 96.050781 L 101.742188 96.160156 L 101.34375 96.324219 C 101.257812 96.359375 101.171875 96.394531 101.085938 96.433594 C 99.117188 97.277344 97.703125 98.136719 98 99.199219 C 98.007812 99.230469 98.019531 99.261719 98.027344 99.289062 C 98.054688 99.367188 98.089844 99.441406 98.136719 99.511719 C 98.164062 99.554688 98.195312 99.59375 98.226562 99.628906 C 98.578125 99.992188 99.214844 99.933594 100.015625 99.644531 C 100.128906 99.605469 100.242188 99.5625 100.351562 99.515625 L 100.421875 99.488281 C 100.605469 99.410156 100.800781 99.324219 101 99.226562 C 101.046875 99.203125 101.097656 99.183594 101.148438 99.15625 C 102.128906 98.675781 103.242188 98.03125 104.347656 97.441406 C 104.789062 97.203125 105.234375 96.976562 105.6875 96.761719 C 106.734375 96.269531 107.714844 95.921875 108.503906 95.921875 C 108.875 95.921875 109.203125 96 109.476562 96.171875 L 109.519531 96.203125 C 109.691406 96.324219 109.835938 96.476562 109.941406 96.65625 C 109.964844 96.691406 109.984375 96.726562 110.003906 96.765625 C 110.394531 97.507812 110.066406 98.273438 109.304688 99.027344 C 108.570312 99.746094 107.429688 100.457031 106.132812 101.109375 C 106.035156 101.160156 105.9375 101.207031 105.839844 101.257812 C 101.980469 103.152344 96.925781 104.582031 96.855469 104.597656 C 95.507812 104.945312 93.582031 105.40625 91.410156 105.75 L 91.089844 105.796875 L 91.035156 105.804688 C 90.792969 105.84375 90.550781 105.878906 90.304688 105.910156 C 90.058594 105.941406 89.808594 105.972656 89.554688 106 L 89.507812 106.007812 C 88.597656 106.113281 87.679688 106.179688 86.761719 106.214844 L 86.75 106.214844 C 86.417969 106.226562 86.085938 106.234375 85.753906 106.234375 L 85.371094 106.234375 C 84.863281 106.226562 84.359375 106.203125 83.851562 106.164062 C 83.839844 106.164062 83.828125 106.164062 83.816406 106.160156 C 83.636719 106.148438 83.453125 106.128906 83.273438 106.109375 C 83.085938 106.089844 82.902344 106.066406 82.714844 106.042969 C 82.59375 106.027344 82.46875 106.007812 82.347656 105.988281 C 82.222656 105.96875 82.101562 105.945312 81.976562 105.925781 L 81.808594 105.894531 L 81.792969 105.890625 C 81.617188 105.855469 81.441406 105.820312 81.265625 105.777344 C 81.160156 105.753906 81.058594 105.734375 80.957031 105.707031 L 80.898438 105.691406 C 80.847656 105.679688 80.796875 105.664062 80.75 105.652344 L 80.722656 105.644531 L 80.5625 105.597656 C 80.507812 105.582031 80.449219 105.566406 80.390625 105.546875 L 80.371094 105.542969 L 80.222656 105.496094 C 80.164062 105.480469 80.109375 105.460938 80.054688 105.441406 L 79.914062 105.394531 L 79.816406 105.359375 C 79.71875 105.328125 79.621094 105.292969 79.523438 105.253906 L 79.433594 105.21875 L 79.359375 105.1875 C 79.210938 105.128906 79.066406 105.070312 78.925781 105.003906 L 78.828125 104.957031 L 78.8125 104.953125 C 78.78125 104.9375 78.746094 104.921875 78.714844 104.90625 C 78.648438 104.875 78.582031 104.839844 78.515625 104.808594 L 78.496094 104.796875 L 78.402344 104.75 C 78.234375 104.660156 78.070312 104.566406 77.910156 104.46875 L 77.820312 104.414062 C 77.777344 104.386719 77.734375 104.359375 77.691406 104.332031 L 77.574219 104.253906 L 77.453125 104.167969 L 77.378906 104.117188 C 77.300781 104.0625 77.222656 104.003906 77.148438 103.945312 L 77.027344 103.851562 C 76.980469 103.816406 76.933594 103.777344 76.886719 103.734375 C 76.847656 103.703125 76.808594 103.671875 76.769531 103.636719 L 76.769531 103.632812 C 76.726562 103.597656 76.6875 103.5625 76.644531 103.523438 C 76.605469 103.488281 76.566406 103.449219 76.527344 103.414062 L 76.523438 103.40625 C 76.480469 103.367188 76.441406 103.328125 76.402344 103.289062 C 76.363281 103.25 76.320312 103.210938 76.28125 103.167969 C 76.246094 103.128906 76.203125 103.085938 76.167969 103.042969 C 76.128906 103 76.09375 102.964844 76.058594 102.921875 L 76.046875 102.90625 C 76.011719 102.867188 75.976562 102.828125 75.945312 102.785156 C 75.871094 102.699219 75.800781 102.609375 75.730469 102.515625 C 75.660156 102.425781 75.59375 102.328125 75.527344 102.234375 L 75.464844 102.140625 C 75.378906 102.015625 75.296875 101.890625 75.21875 101.765625 C 75.160156 101.675781 75.101562 101.585938 75.042969 101.492188 C 75.007812 101.433594 74.972656 101.375 74.9375 101.316406 L 74.925781 101.292969 C 74.890625 101.238281 74.859375 101.183594 74.828125 101.125 C 74.808594 101.097656 74.789062 101.066406 74.773438 101.035156 C 74.757812 101.003906 74.738281 100.972656 74.71875 100.9375 L 74.691406 100.886719 L 74.671875 100.855469 C 74.636719 100.792969 74.605469 100.730469 74.570312 100.667969 C 74.554688 100.640625 74.542969 100.613281 74.523438 100.585938 L 74.480469 100.496094 L 74.433594 100.410156 C 74.316406 100.179688 74.210938 99.945312 74.105469 99.707031 L 74.070312 99.621094 C 74.046875 99.5625 74.023438 99.507812 74 99.449219 C 73.988281 99.421875 73.976562 99.394531 73.96875 99.367188 C 73.914062 99.226562 73.863281 99.082031 73.816406 98.9375 C 73.796875 98.886719 73.78125 98.835938 73.765625 98.785156 C 73.730469 98.667969 73.695312 98.550781 73.667969 98.429688 C 73.628906 98.292969 73.597656 98.15625 73.570312 98.015625 C 73.566406 97.984375 73.558594 97.957031 73.554688 97.929688 C 73.527344 97.792969 73.507812 97.65625 73.488281 97.519531 C 73.484375 97.492188 73.484375 97.464844 73.480469 97.4375 L 73.472656 97.351562 C 73.460938 97.246094 73.449219 97.136719 73.445312 97.027344 C 73.445312 97 73.441406 96.96875 73.441406 96.945312 C 73.441406 96.890625 73.4375 96.835938 73.4375 96.78125 C 73.410156 94.589844 74.519531 92.484375 76.886719 90.113281 C 81.109375 85.898438 83.566406 79.726562 83.566406 79.726562 C 83.566406 79.726562 83.632812 79.464844 83.769531 79.09375 C 83.789062 79.042969 83.808594 78.988281 83.832031 78.933594 C 83.914062 78.722656 84.003906 78.519531 84.101562 78.316406 L 84.125 78.28125 C 84.207031 78.109375 84.300781 77.945312 84.402344 77.78125 C 84.425781 77.746094 84.449219 77.707031 84.472656 77.671875 C 84.550781 77.558594 84.628906 77.449219 84.710938 77.34375 C 84.757812 77.289062 84.808594 77.230469 84.859375 77.175781 C 84.878906 77.15625 84.898438 77.132812 84.917969 77.113281 C 85.164062 76.859375 85.441406 76.65625 85.757812 76.542969 L 85.796875 76.53125 C 85.824219 76.523438 85.851562 76.515625 85.878906 76.507812 C 85.910156 76.5 85.941406 76.492188 85.972656 76.484375 L 85.988281 76.480469 C 86.054688 76.46875 86.125 76.460938 86.191406 76.457031 L 86.195312 76.457031 C 86.230469 76.457031 86.269531 76.453125 86.304688 76.453125 C 86.351562 76.453125 86.394531 76.453125 86.4375 76.457031 C 86.484375 76.460938 86.527344 76.464844 86.574219 76.472656 C 86.957031 76.53125 87.316406 76.757812 87.628906 77.109375 C 87.746094 77.242188 87.855469 77.386719 87.949219 77.539062 C 88.007812 77.636719 88.066406 77.742188 88.121094 77.851562 C 88.144531 77.894531 88.164062 77.9375 88.1875 77.984375 C 88.238281 78.097656 88.289062 78.214844 88.328125 78.335938 C 88.429688 78.621094 88.503906 78.910156 88.554688 79.203125 C 88.597656 79.464844 88.621094 79.726562 88.632812 79.988281 C 88.636719 80.128906 88.636719 80.269531 88.632812 80.414062 C 88.601562 81.078125 88.46875 81.734375 88.226562 82.355469 C 88.207031 82.414062 88.183594 82.46875 88.160156 82.527344 C 88.113281 82.644531 88.058594 82.757812 88.003906 82.867188 C 87.960938 82.953125 87.917969 83.039062 87.871094 83.125 C 87.839844 83.179688 87.808594 83.234375 87.777344 83.292969 C 87.695312 83.433594 87.605469 83.574219 87.507812 83.710938 L 87.449219 83.792969 C 87.222656 84.109375 86.972656 84.40625 86.695312 84.679688 C 86.425781 84.953125 86.132812 85.203125 85.824219 85.433594 C 85.515625 85.664062 85.226562 85.914062 84.960938 86.191406 C 84.1875 87 84.007812 87.714844 84.183594 88.253906 C 84.210938 88.339844 84.246094 88.421875 84.289062 88.5 C 84.34375 88.589844 84.402344 88.671875 84.472656 88.746094 L 84.527344 88.800781 C 84.554688 88.828125 84.585938 88.855469 84.617188 88.878906 L 84.648438 88.90625 C 84.722656 88.960938 84.800781 89.011719 84.882812 89.058594 C 84.90625 89.070312 84.929688 89.085938 84.957031 89.097656 C 85.046875 89.140625 85.136719 89.175781 85.230469 89.207031 C 85.257812 89.214844 85.285156 89.222656 85.308594 89.234375 L 85.34375 89.242188 L 85.390625 89.253906 L 85.429688 89.261719 L 85.472656 89.273438 L 85.515625 89.28125 L 85.554688 89.289062 C 85.585938 89.292969 85.617188 89.296875 85.648438 89.300781 L 85.730469 89.3125 L 85.761719 89.316406 L 85.816406 89.320312 L 86.132812 89.320312 L 86.191406 89.316406 L 86.261719 89.308594 L 86.328125 89.300781 C 86.34375 89.300781 86.359375 89.296875 86.375 89.292969 C 86.578125 89.265625 86.78125 89.210938 86.972656 89.132812 L 87.054688 89.097656 C 87.101562 89.078125 87.144531 89.054688 87.1875 89.035156 C 87.277344 88.988281 87.367188 88.9375 87.449219 88.882812 C 87.566406 88.804688 87.679688 88.71875 87.78125 88.625 C 87.808594 88.601562 87.832031 88.578125 87.855469 88.554688 C 87.867188 88.542969 87.878906 88.535156 87.890625 88.519531 C 87.910156 88.496094 87.933594 88.476562 87.957031 88.449219 C 88.121094 88.269531 88.261719 88.070312 88.378906 87.855469 C 89.382812 86.03125 90.433594 84.234375 91.535156 82.464844 L 91.683594 82.226562 L 91.835938 81.984375 C 91.914062 81.859375 91.988281 81.742188 92.066406 81.621094 L 92.144531 81.5 C 92.398438 81.101562 92.65625 80.703125 92.921875 80.308594 L 93.078125 80.074219 C 93.390625 79.609375 93.703125 79.15625 94.015625 78.726562 L 94.167969 78.515625 C 94.507812 78.050781 94.855469 77.59375 95.222656 77.152344 L 95.367188 76.976562 C 95.390625 76.949219 95.414062 76.921875 95.4375 76.894531 C 95.488281 76.835938 95.535156 76.78125 95.582031 76.726562 C 95.605469 76.703125 95.625 76.675781 95.652344 76.648438 L 95.789062 76.492188 L 95.859375 76.417969 C 95.925781 76.34375 95.996094 76.273438 96.0625 76.203125 C 96.105469 76.15625 96.148438 76.113281 96.195312 76.070312 C 96.453125 75.804688 96.742188 75.566406 97.050781 75.359375 L 97.121094 75.3125 C 97.191406 75.265625 97.261719 75.222656 97.335938 75.183594 C 98.546875 74.496094 99.550781 74.445312 100.128906 75.023438 C 100.476562 75.371094 100.671875 75.953125 100.660156 76.757812 C 100.660156 76.796875 100.660156 76.832031 100.65625 76.867188 L 100.65625 76.90625 C 100.65625 76.945312 100.65625 76.980469 100.652344 77.019531 C 100.652344 77.066406 100.644531 77.109375 100.640625 77.15625 C 100.636719 77.203125 100.632812 77.238281 100.628906 77.277344 C 100.628906 77.289062 100.628906 77.300781 100.625 77.3125 C 100.621094 77.347656 100.617188 77.386719 100.613281 77.421875 C 100.613281 77.433594 100.613281 77.445312 100.609375 77.453125 C 100.601562 77.503906 100.597656 77.550781 100.585938 77.601562 C 100.582031 77.644531 100.574219 77.6875 100.566406 77.734375 L 100.554688 77.8125 C 100.539062 77.882812 100.523438 77.957031 100.5 78.027344 C 100.460938 78.160156 100.414062 78.289062 100.355469 78.414062 C 100.277344 78.589844 100.1875 78.757812 100.09375 78.921875 C 100.039062 79.011719 99.984375 79.101562 99.929688 79.191406 C 99.871094 79.28125 99.808594 79.375 99.746094 79.46875 C 99.582031 79.699219 99.414062 79.925781 99.238281 80.148438 L 99.160156 80.25 C 98.875 80.605469 98.578125 80.953125 98.277344 81.292969 L 98.179688 81.402344 C 98.050781 81.546875 97.921875 81.691406 97.785156 81.835938 L 97.683594 81.945312 C 97.617188 82.019531 97.546875 82.09375 97.480469 82.167969 C 97.414062 82.238281 97.34375 82.3125 97.273438 82.386719 L 97.0625 82.609375 L 96.847656 82.835938 L 96.632812 83.058594 C 96.488281 83.207031 96.34375 83.355469 96.195312 83.507812 C 94.117188 85.640625 91.925781 87.765625 91.183594 89.089844 C 91.136719 89.175781 91.089844 89.265625 91.050781 89.355469 C 90.945312 89.597656 90.902344 89.800781 90.929688 89.96875 C 90.941406 90.023438 90.960938 90.074219 90.988281 90.125 C 91.03125 90.195312 91.082031 90.261719 91.140625 90.324219 C 91.167969 90.347656 91.195312 90.375 91.226562 90.394531 C 91.378906 90.503906 91.5625 90.5625 91.75 90.554688 L 91.808594 90.554688 L 91.867188 90.550781 L 91.929688 90.542969 L 91.980469 90.539062 C 91.984375 90.535156 91.992188 90.535156 92 90.535156 L 92.042969 90.523438 L 92.054688 90.523438 L 92.105469 90.511719 L 92.125 90.507812 C 92.144531 90.503906 92.160156 90.496094 92.179688 90.492188 C 92.195312 90.488281 92.222656 90.480469 92.242188 90.472656 C 92.332031 90.445312 92.421875 90.414062 92.507812 90.375 C 92.554688 90.359375 92.597656 90.339844 92.640625 90.316406 C 92.664062 90.308594 92.6875 90.296875 92.710938 90.285156 L 92.777344 90.25 C 92.941406 90.164062 93.101562 90.074219 93.257812 89.972656 L 93.328125 89.925781 C 93.347656 89.914062 93.371094 89.898438 93.394531 89.882812 L 93.460938 89.835938 L 93.5 89.8125 L 93.597656 89.742188 C 93.6875 89.679688 93.773438 89.613281 93.863281 89.546875 L 93.871094 89.542969 L 94.007812 89.433594 C 94.195312 89.285156 94.375 89.136719 94.535156 88.996094 L 94.644531 88.902344 L 94.652344 88.890625 L 94.710938 88.84375 C 94.84375 88.722656 94.960938 88.613281 95.058594 88.519531 L 95.097656 88.480469 C 95.132812 88.449219 95.164062 88.417969 95.195312 88.390625 L 95.339844 88.246094 L 95.375 88.207031 L 95.382812 88.203125 L 95.398438 88.1875 L 95.421875 88.167969 L 95.429688 88.160156 L 95.449219 88.144531 L 95.550781 88.050781 L 95.609375 88 C 95.640625 87.972656 95.671875 87.945312 95.703125 87.917969 L 95.773438 87.855469 C 95.785156 87.84375 95.796875 87.832031 95.808594 87.820312 L 95.882812 87.757812 L 95.992188 87.664062 L 96.050781 87.613281 C 96.273438 87.417969 96.542969 87.183594 96.855469 86.921875 L 96.984375 86.8125 L 97.191406 86.636719 L 97.410156 86.457031 C 97.691406 86.222656 97.996094 85.972656 98.316406 85.714844 L 98.527344 85.546875 C 98.707031 85.402344 98.890625 85.257812 99.078125 85.109375 C 99.152344 85.050781 99.226562 84.992188 99.304688 84.933594 C 99.496094 84.785156 99.6875 84.640625 99.882812 84.492188 C 100.320312 84.160156 100.773438 83.828125 101.234375 83.503906 L 101.429688 83.367188 C 101.570312 83.273438 101.707031 83.175781 101.84375 83.085938 L 101.96875 83 C 102.214844 82.832031 102.464844 82.671875 102.714844 82.511719 L 102.964844 82.355469 C 103.085938 82.28125 103.210938 82.203125 103.332031 82.132812 L 103.457031 82.058594 L 103.699219 81.914062 L 103.941406 81.777344 L 103.988281 81.75 L 104.179688 81.648438 C 104.257812 81.605469 104.339844 81.5625 104.417969 81.523438 L 104.535156 81.460938 L 104.648438 81.402344 C 104.6875 81.382812 104.726562 81.363281 104.765625 81.347656 C 105.023438 81.21875 105.285156 81.101562 105.554688 80.996094 C 105.625 80.964844 105.699219 80.9375 105.769531 80.914062 L 105.980469 80.839844 C 106.042969 80.816406 106.105469 80.796875 106.164062 80.78125 L 106.183594 80.773438 C 106.214844 80.761719 106.246094 80.753906 106.277344 80.746094 L 106.289062 80.742188 C 106.351562 80.722656 106.417969 80.707031 106.480469 80.691406 L 106.488281 80.691406 C 106.667969 80.648438 106.851562 80.617188 107.039062 80.597656 C 107.125 80.589844 107.210938 80.585938 107.296875 80.585938 L 107.339844 80.585938 C 107.398438 80.585938 107.453125 80.589844 107.507812 80.59375 C 107.53125 80.59375 107.558594 80.601562 107.582031 80.601562 L 107.59375 80.601562 C 107.617188 80.605469 107.640625 80.609375 107.664062 80.617188 C 107.691406 80.621094 107.714844 80.625 107.738281 80.628906 L 107.746094 80.628906 C 107.769531 80.636719 107.792969 80.640625 107.816406 80.648438 C 107.945312 80.683594 108.070312 80.742188 108.183594 80.816406 C 108.242188 80.851562 108.292969 80.890625 108.339844 80.9375 L 108.355469 80.953125 C 108.363281 80.960938 108.371094 80.96875 108.382812 80.976562 L 108.40625 81.003906 C 108.613281 81.21875 108.78125 81.46875 108.910156 81.738281 L 108.929688 81.785156 C 108.972656 81.886719 109.007812 81.992188 109.03125 82.101562 C 109.105469 82.433594 109.078125 82.777344 108.953125 83.09375 C 108.902344 83.21875 108.847656 83.34375 108.777344 83.460938 C 108.617188 83.726562 108.429688 83.976562 108.214844 84.203125 L 108.167969 84.253906 C 108.101562 84.324219 108.03125 84.394531 107.957031 84.46875 C 107.921875 84.5 107.886719 84.53125 107.855469 84.5625 L 107.75 84.660156 L 107.695312 84.710938 C 107.5625 84.828125 107.425781 84.941406 107.289062 85.050781 C 107.203125 85.121094 107.121094 85.1875 107.035156 85.25 C 106.734375 85.480469 106.429688 85.703125 106.117188 85.917969 C 105.929688 86.046875 105.738281 86.171875 105.546875 86.296875 C 105.078125 86.605469 104.601562 86.90625 104.121094 87.203125 C 103.109375 87.820312 101.992188 88.484375 100.800781 89.207031 L 100.492188 89.394531 C 100.152344 89.601562 99.835938 89.796875 99.535156 89.984375 L 99.382812 90.078125 L 99.097656 90.261719 C 98.90625 90.382812 98.71875 90.507812 98.527344 90.628906 L 98.378906 90.730469 C 98.300781 90.777344 98.230469 90.828125 98.15625 90.875 L 98.082031 90.921875 L 97.859375 91.070312 L 97.742188 91.152344 L 97.605469 91.246094 L 97.480469 91.335938 C 97.265625 91.488281 97.066406 91.632812 96.882812 91.769531 L 96.8125 91.820312 C 96.707031 91.902344 96.601562 91.984375 96.496094 92.070312 C 96.335938 92.199219 96.191406 92.320312 96.0625 92.4375 L 96 92.496094 C 95.960938 92.527344 95.925781 92.5625 95.890625 92.59375 C 95.867188 92.617188 95.847656 92.640625 95.820312 92.664062 L 95.789062 92.695312 C 95.714844 92.769531 95.644531 92.84375 95.574219 92.921875 L 95.539062 92.960938 C 95.464844 93.046875 95.398438 93.132812 95.34375 93.214844 L 95.316406 93.25 C 95.273438 93.316406 95.230469 93.382812 95.191406 93.453125 C 95.183594 93.46875 95.175781 93.488281 95.164062 93.503906 L 95.140625 93.558594 L 95.125 93.59375 L 95.113281 93.621094 L 95.105469 93.644531 L 95.09375 93.675781 C 95.058594 93.761719 95.039062 93.851562 95.027344 93.941406 L 95.019531 93.976562 L 95.019531 94.167969 C 95.019531 94.179688 95.019531 94.191406 95.023438 94.207031 L 95.023438 94.230469 C 95.023438 94.246094 95.027344 94.257812 95.03125 94.273438 C 95.03125 94.285156 95.035156 94.308594 95.039062 94.328125 L 95.039062 94.332031 C 95.042969 94.347656 95.046875 94.367188 95.050781 94.382812 C 95.054688 94.402344 95.058594 94.421875 95.066406 94.441406 C 95.074219 94.476562 95.089844 94.515625 95.101562 94.550781 C 95.109375 94.570312 95.117188 94.59375 95.125 94.613281 C 95.125 94.617188 95.128906 94.621094 95.128906 94.625 L 95.148438 94.667969 L 95.175781 94.722656 C 95.203125 94.785156 95.234375 94.839844 95.265625 94.898438 L 95.335938 95.015625 C 95.339844 95.023438 95.347656 95.03125 95.355469 95.042969 L 95.378906 95.066406 L 95.394531 95.074219 C 95.410156 95.089844 95.433594 95.101562 95.457031 95.109375 C 95.46875 95.113281 95.480469 95.113281 95.492188 95.117188 C 95.789062 95.183594 96.394531 94.941406 97.203125 94.511719 C 97.25 94.488281 97.300781 94.464844 97.347656 94.4375 L 97.59375 94.300781 L 97.714844 94.234375 C 97.800781 94.191406 97.886719 94.136719 97.976562 94.085938 L 98.136719 93.996094 C 99.207031 93.378906 100.480469 92.589844 101.800781 91.820312 C 101.925781 91.746094 102.046875 91.675781 102.171875 91.605469 L 102.421875 91.445312 C 102.710938 91.277344 103 91.117188 103.292969 90.953125 C 103.660156 90.753906 104.03125 90.554688 104.40625 90.363281 L 104.648438 90.242188 C 104.8125 90.160156 104.972656 90.082031 105.128906 90.007812 C 105.4375 89.863281 105.746094 89.722656 106.058594 89.59375 L 106.230469 89.523438 L 106.253906 89.515625 C 107.164062 89.152344 107.988281 88.929688 108.65625 88.929688 C 108.800781 88.929688 108.945312 88.941406 109.085938 88.96875 L 109.089844 88.96875 C 109.136719 88.976562 109.175781 88.984375 109.21875 88.996094 L 109.226562 88.996094 C 109.335938 89.023438 109.441406 89.0625 109.542969 89.113281 C 109.683594 89.183594 109.8125 89.28125 109.917969 89.398438 C 109.96875 89.453125 110.011719 89.511719 110.050781 89.574219 C 110.121094 89.683594 110.175781 89.804688 110.21875 89.929688 C 110.234375 89.980469 110.25 90.027344 110.265625 90.078125 C 110.371094 90.464844 110.359375 90.875 110.234375 91.257812 Z M 110.234375 91.257812 " fill-opacity="1" fill-rule="nonzero"/><path fill="#ffd21e" d="M 104.183594 63.414062 L 104.183594 63.160156 C 104.183594 41.703125 86.796875 24.308594 65.335938 24.308594 C 43.875 24.308594 26.480469 41.703125 26.480469 63.160156 L 26.480469 63.246094 C 26.480469 63.300781 26.476562 63.355469 26.480469 63.414062 C 26.480469 63.496094 26.484375 63.578125 26.480469 63.664062 L 26.484375 63.847656 L 26.488281 63.914062 C 26.488281 63.945312 26.488281 63.976562 26.488281 64.007812 C 26.488281 64.054688 26.492188 64.105469 26.492188 64.152344 L 26.496094 64.351562 L 26.503906 64.585938 L 26.507812 64.664062 L 26.519531 64.90625 L 26.519531 64.917969 C 26.523438 65.011719 26.527344 65.105469 26.53125 65.199219 L 26.53125 65.207031 C 26.539062 65.304688 26.542969 65.402344 26.546875 65.5 C 26.554688 65.585938 26.558594 65.675781 26.566406 65.765625 L 26.566406 65.78125 C 26.570312 65.859375 26.574219 65.933594 26.582031 66.011719 L 26.582031 66.03125 L 26.601562 66.253906 L 26.601562 66.269531 C 26.605469 66.3125 26.609375 66.355469 26.613281 66.394531 C 26.644531 66.765625 26.679688 67.136719 26.71875 67.503906 L 26.722656 67.527344 L 26.753906 67.796875 L 26.789062 68.082031 L 26.8125 68.277344 L 26.824219 68.367188 C 26.851562 68.574219 26.882812 68.785156 26.914062 68.992188 L 26.917969 69.007812 L 26.945312 69.203125 C 27.09375 70.140625 27.273438 71.074219 27.488281 71.996094 L 27.492188 72.007812 L 27.507812 72.078125 L 27.554688 72.273438 L 27.585938 72.242188 C 28.710938 70.890625 30.328125 70.148438 32.140625 70.148438 C 33.589844 70.148438 35.078125 70.628906 36.570312 71.574219 C 37.5625 72.203125 38.65625 73.316406 39.78125 74.714844 C 40.824219 73.269531 42.28125 72.308594 43.953125 72.046875 C 44.273438 71.996094 44.59375 71.96875 44.917969 71.96875 C 48.730469 71.96875 51.023438 75.277344 51.890625 78.253906 C 52.320312 79.257812 54.386719 83.839844 57.5 86.9375 C 62.238281 91.667969 63.421875 96.546875 61.078125 101.777344 L 61.085938 101.777344 C 61.246094 101.792969 61.40625 101.808594 61.566406 101.824219 C 61.664062 101.835938 61.757812 101.84375 61.855469 101.851562 L 61.890625 101.855469 L 62.101562 101.871094 L 62.296875 101.886719 C 62.480469 101.902344 62.667969 101.914062 62.855469 101.925781 L 63.003906 101.9375 L 63.121094 101.941406 L 63.191406 101.949219 L 63.421875 101.960938 L 63.484375 101.960938 L 63.726562 101.972656 L 63.992188 101.984375 L 64.207031 101.988281 L 64.242188 101.988281 C 64.289062 101.992188 64.335938 101.992188 64.378906 101.992188 L 64.429688 101.996094 C 64.730469 102.003906 65.035156 102.007812 65.335938 102.003906 L 65.886719 102.003906 C 65.941406 102 66 102 66.054688 102 L 66.222656 102 C 66.253906 101.996094 66.28125 101.996094 66.3125 101.996094 L 66.40625 101.996094 L 66.585938 101.992188 L 66.855469 101.980469 L 67.152344 101.96875 C 67.238281 101.964844 67.324219 101.960938 67.410156 101.957031 L 67.503906 101.953125 L 67.636719 101.945312 L 67.71875 101.941406 L 67.777344 101.9375 L 68.054688 101.917969 L 68.328125 101.898438 L 68.578125 101.878906 L 68.753906 101.863281 L 68.945312 101.84375 C 69.269531 101.816406 69.589844 101.78125 69.910156 101.746094 L 70.128906 101.71875 C 67.824219 96.511719 69.015625 91.652344 73.730469 86.941406 C 76.839844 83.835938 78.90625 79.257812 79.335938 78.25 C 80.203125 75.273438 82.5 71.964844 86.3125 71.964844 C 86.636719 71.964844 86.957031 71.992188 87.277344 72.042969 C 88.945312 72.304688 90.40625 73.265625 91.449219 74.714844 C 92.574219 73.3125 93.667969 72.199219 94.660156 71.570312 C 96.148438 70.625 97.640625 70.144531 99.089844 70.144531 C 100.6875 70.144531 102.136719 70.726562 103.230469 71.789062 C 103.25 71.699219 103.269531 71.613281 103.285156 71.527344 L 103.34375 71.269531 C 103.363281 71.171875 103.382812 71.078125 103.402344 70.984375 C 103.4375 70.816406 103.46875 70.648438 103.5 70.480469 C 103.535156 70.304688 103.566406 70.128906 103.597656 69.949219 L 103.613281 69.855469 C 103.625 69.800781 103.632812 69.742188 103.644531 69.683594 C 103.660156 69.597656 103.675781 69.507812 103.691406 69.421875 L 103.695312 69.386719 L 103.734375 69.152344 L 103.769531 68.917969 C 103.792969 68.742188 103.820312 68.570312 103.84375 68.394531 L 103.847656 68.351562 L 103.878906 68.105469 L 103.90625 67.898438 L 103.953125 67.484375 L 103.96875 67.320312 L 103.976562 67.273438 C 103.984375 67.1875 103.992188 67.097656 104.003906 67.007812 L 104.003906 67 C 104.007812 66.929688 104.015625 66.859375 104.023438 66.785156 C 104.058594 66.382812 104.089844 65.976562 104.113281 65.570312 C 104.117188 65.503906 104.121094 65.433594 104.125 65.367188 L 104.125 65.363281 L 104.140625 65.113281 L 104.144531 65.058594 C 104.152344 64.886719 104.15625 64.714844 104.164062 64.546875 L 104.164062 64.539062 L 104.167969 64.472656 C 104.167969 64.417969 104.171875 64.359375 104.171875 64.304688 L 104.171875 64.28125 C 104.175781 64.230469 104.175781 64.175781 104.175781 64.121094 L 104.175781 64.074219 C 104.179688 64.019531 104.179688 63.96875 104.179688 63.914062 L 104.183594 63.867188 C 104.183594 63.800781 104.183594 63.730469 104.183594 63.664062 Z M 55.699219 102.226562 C 58.773438 97.714844 58.558594 94.328125 54.335938 90.109375 C 50.113281 85.886719 47.65625 79.71875 47.65625 79.71875 C 47.65625 79.71875 46.738281 76.132812 44.648438 76.460938 C 42.554688 76.792969 41.019531 82.148438 45.398438 85.425781 C 49.78125 88.703125 44.527344 90.929688 42.84375 87.851562 C 41.15625 84.773438 36.554688 76.863281 34.167969 75.351562 C 31.78125 73.839844 30.105469 74.6875 30.667969 77.804688 C 30.945312 79.351562 33.542969 81.996094 35.972656 84.464844 C 38.433594 86.96875 40.722656 89.292969 40.234375 90.117188 C 39.261719 91.75 35.84375 88.195312 35.84375 88.195312 C 35.84375 88.195312 25.140625 78.457031 22.8125 80.992188 C 20.664062 83.332031 23.976562 85.320312 29.082031 88.386719 C 29.515625 88.648438 29.960938 88.917969 30.417969 89.191406 C 36.257812 92.730469 36.714844 93.660156 35.882812 95 C 35.578125 95.492188 33.625 94.320312 31.21875 92.875 C 27.121094 90.414062 21.714844 87.171875 20.953125 90.074219 C 20.292969 92.589844 24.269531 94.128906 27.875 95.527344 C 30.878906 96.6875 33.625 97.753906 33.222656 99.199219 C 32.804688 100.695312 30.53125 99.445312 28.050781 98.082031 C 25.265625 96.546875 22.210938 94.867188 21.210938 96.761719 C 19.324219 100.347656 34.238281 104.566406 34.363281 104.597656 C 39.183594 105.847656 51.421875 108.496094 55.699219 102.226562 Z M 75.523438 102.226562 C 72.445312 97.714844 72.664062 94.328125 76.886719 90.109375 C 81.105469 85.886719 83.5625 79.71875 83.5625 79.71875 C 83.5625 79.71875 84.480469 76.132812 86.574219 76.460938 C 88.664062 76.792969 90.199219 82.148438 85.820312 85.425781 C 81.441406 88.703125 86.691406 90.929688 88.375 87.851562 C 90.0625 84.773438 94.664062 76.863281 97.046875 75.351562 C 99.433594 73.839844 101.113281 74.6875 100.550781 77.804688 C 100.273438 79.351562 97.671875 81.996094 95.246094 84.464844 C 92.78125 86.96875 90.496094 89.292969 90.984375 90.117188 C 91.953125 91.75 95.375 88.191406 95.375 88.191406 C 95.375 88.191406 106.078125 78.453125 108.410156 80.992188 C 110.554688 83.332031 107.242188 85.320312 102.136719 88.386719 C 101.691406 88.652344 101.246094 88.921875 100.800781 89.191406 C 94.960938 92.726562 94.507812 93.660156 95.335938 94.996094 C 95.640625 95.492188 97.597656 94.316406 100 92.875 C 104.101562 90.414062 109.503906 87.167969 110.269531 90.074219 C 110.929688 92.585938 106.953125 94.125 103.34375 95.523438 C 100.339844 96.6875 97.59375 97.753906 97.996094 99.195312 C 98.414062 100.695312 100.6875 99.445312 103.167969 98.078125 C 105.953125 96.546875 109.007812 94.863281 110.007812 96.761719 C 111.894531 100.347656 96.976562 104.5625 96.855469 104.59375 C 92.035156 105.847656 79.796875 108.496094 75.523438 102.226562 Z M 75.523438 102.226562 " fill-opacity="1" fill-rule="evenodd"/><path fill="#32343d" d="M 77.953125 52.585938 C 78.558594 52.800781 79.011719 53.453125 79.4375 54.074219 C 80.019531 54.910156 80.558594 55.691406 81.386719 55.253906 C 82.363281 54.734375 83.160156 53.9375 83.683594 52.960938 C 84.207031 51.988281 84.429688 50.882812 84.324219 49.78125 C 84.246094 48.957031 83.984375 48.164062 83.5625 47.453125 C 83.140625 46.742188 82.5625 46.136719 81.878906 45.675781 C 81.191406 45.214844 80.410156 44.910156 79.59375 44.789062 C 78.777344 44.664062 77.941406 44.722656 77.148438 44.960938 C 76.359375 45.203125 75.628906 45.613281 75.015625 46.164062 C 74.402344 46.71875 73.917969 47.402344 73.601562 48.164062 C 73.28125 48.929688 73.136719 49.753906 73.175781 50.578125 C 73.214844 51.40625 73.4375 52.210938 73.824219 52.941406 C 74.207031 53.664062 75.058594 53.320312 75.957031 52.960938 C 76.660156 52.679688 77.394531 52.386719 77.953125 52.585938 Z M 51.613281 52.585938 C 51.007812 52.800781 50.558594 53.453125 50.128906 54.074219 C 49.550781 54.914062 49.007812 55.691406 48.183594 55.253906 C 46.953125 54.601562 46.011719 53.519531 45.542969 52.210938 C 45.070312 50.90625 45.101562 49.46875 45.628906 48.183594 C 46.160156 46.902344 47.148438 45.859375 48.402344 45.261719 C 49.65625 44.667969 51.089844 44.5625 52.417969 44.964844 C 53.476562 45.28125 54.417969 45.90625 55.121094 46.761719 C 55.824219 47.613281 56.257812 48.65625 56.371094 49.757812 C 56.480469 50.855469 56.261719 51.964844 55.746094 52.941406 C 55.359375 53.664062 54.507812 53.320312 53.609375 52.964844 C 52.90625 52.679688 52.175781 52.386719 51.613281 52.585938 Z M 73.878906 76.554688 C 78.054688 73.265625 79.585938 67.894531 79.585938 64.585938 C 79.585938 61.972656 77.828125 62.796875 75.011719 64.191406 L 74.851562 64.269531 C 72.269531 65.550781 68.828125 67.253906 65.050781 67.253906 C 61.269531 67.253906 57.828125 65.550781 55.246094 64.269531 C 52.339844 62.828125 50.515625 61.925781 50.515625 64.589844 C 50.515625 68 52.144531 73.605469 56.625 76.859375 C 57.214844 75.660156 58.046875 74.59375 59.066406 73.730469 C 60.089844 72.867188 61.277344 72.226562 62.558594 71.84375 C 63.003906 71.707031 63.464844 72.476562 63.9375 73.265625 C 64.390625 74.027344 64.855469 74.804688 65.328125 74.804688 C 65.832031 74.804688 66.328125 74.039062 66.8125 73.289062 C 67.316406 72.507812 67.808594 71.746094 68.285156 71.898438 C 70.683594 72.667969 72.6875 74.335938 73.878906 76.554688 Z M 73.878906 76.554688 " fill-opacity="1" fill-rule="evenodd"/><path fill="#ff323d" d="M 73.878906 76.554688 C 71.703125 78.265625 68.8125 79.417969 65.050781 79.417969 C 61.515625 79.417969 58.75 78.402344 56.625 76.859375 C 57.214844 75.660156 58.046875 74.59375 59.066406 73.730469 C 60.089844 72.867188 61.277344 72.226562 62.558594 71.839844 C 63.4375 71.578125 64.367188 74.804688 65.328125 74.804688 C 66.359375 74.804688 67.351562 71.601562 68.285156 71.898438 C 70.683594 72.667969 72.6875 74.335938 73.878906 76.554688 Z M 73.878906 76.554688 " fill-opacity="1" fill-rule="nonzero"/><path fill="#ffad03" d="M 41.628906 57.238281 C 41.132812 57.570312 40.5625 57.773438 39.96875 57.832031 C 39.375 57.890625 38.773438 57.800781 38.222656 57.574219 C 37.78125 57.390625 37.378906 57.125 37.042969 56.785156 C 36.703125 56.449219 36.4375 56.046875 36.253906 55.605469 C 36.027344 55.054688 35.9375 54.453125 35.996094 53.859375 C 36.054688 53.265625 36.257812 52.691406 36.589844 52.195312 C 36.992188 51.597656 37.558594 51.132812 38.222656 50.859375 C 38.886719 50.582031 39.617188 50.511719 40.320312 50.652344 C 41.027344 50.792969 41.675781 51.136719 42.183594 51.644531 C 42.691406 52.15625 43.035156 52.800781 43.175781 53.507812 C 43.316406 54.210938 43.246094 54.941406 42.96875 55.605469 C 42.695312 56.269531 42.226562 56.839844 41.628906 57.238281 Z M 93.625 57.238281 C 93.128906 57.570312 92.558594 57.773438 91.960938 57.832031 C 91.367188 57.890625 90.765625 57.800781 90.214844 57.574219 C 89.773438 57.390625 89.371094 57.125 89.035156 56.785156 C 88.699219 56.449219 88.429688 56.046875 88.246094 55.605469 C 88.019531 55.054688 87.929688 54.453125 87.988281 53.859375 C 88.046875 53.265625 88.253906 52.691406 88.585938 52.195312 C 88.882812 51.75 89.277344 51.375 89.738281 51.097656 C 90.199219 50.820312 90.714844 50.652344 91.25 50.597656 C 91.785156 50.546875 92.324219 50.613281 92.832031 50.792969 C 93.335938 50.976562 93.796875 51.265625 94.175781 51.648438 C 94.683594 52.15625 95.03125 52.800781 95.171875 53.507812 C 95.3125 54.210938 95.238281 54.941406 94.964844 55.605469 C 94.6875 56.269531 94.222656 56.839844 93.625 57.238281 Z M 93.625 57.238281 " fill-opacity="1" fill-rule="evenodd"/><g clip-path="url(#faa15ecf58)"><path fill="#ffffff" d="M 138.183594 59.6875 L 138.183594 24.949219 L 147.339844 24.949219 L 147.339844 37.882812 L 157.664062 37.882812 L 157.664062 24.949219 L 166.820312 24.949219 L 166.820312 59.6875 L 157.664062 59.6875 L 157.664062 45.898438 L 147.339844 45.898438 L 147.339844 59.6875 Z M 181.808594 60.332031 C 178.898438 60.332031 176.789062 59.351562 175.476562 57.390625 C 174.164062 55.394531 173.507812 52.742188 173.507812 49.425781 L 173.507812 32.964844 L 182.660156 32.964844 L 182.660156 48.25 C 182.660156 49.960938 182.875 51.101562 183.300781 51.671875 C 183.761719 52.242188 184.4375 52.527344 185.324219 52.527344 C 186.175781 52.527344 186.882812 52.347656 187.453125 51.992188 C 188.019531 51.636719 188.585938 51.03125 189.15625 50.175781 L 189.15625 32.964844 L 198.308594 32.964844 L 198.308594 59.6875 L 190.859375 59.6875 L 190.21875 56.160156 L 190.007812 56.160156 C 188.941406 57.445312 187.753906 58.460938 186.441406 59.207031 C 185.164062 59.957031 183.621094 60.332031 181.808594 60.332031 Z M 214.175781 70.699219 C 212.15625 70.699219 210.292969 70.46875 208.589844 70.003906 C 206.886719 69.578125 205.519531 68.882812 204.492188 67.917969 C 203.496094 66.957031 203 65.675781 203 64.070312 C 203 61.96875 204.242188 60.257812 206.726562 58.941406 L 206.726562 58.726562 C 206.046875 58.222656 205.453125 57.609375 204.96875 56.910156 C 204.507812 56.160156 204.277344 55.234375 204.277344 54.128906 C 204.277344 53.203125 204.542969 52.296875 205.074219 51.40625 C 205.644531 50.515625 206.371094 49.746094 207.257812 49.105469 L 207.257812 48.894531 C 206.300781 48.25 205.449219 47.34375 204.703125 46.167969 C 203.992188 44.957031 203.636719 43.582031 203.636719 42.050781 C 203.636719 39.84375 204.171875 38.023438 205.234375 36.601562 C 206.335938 35.140625 207.753906 34.070312 209.492188 33.394531 C 211.230469 32.679688 213.078125 32.324219 215.027344 32.324219 C 216.589844 32.324219 218.007812 32.539062 219.285156 32.964844 L 229.1875 32.964844 L 229.1875 39.59375 L 225.355469 39.59375 C 225.460938 39.914062 225.550781 40.324219 225.621094 40.820312 C 225.726562 41.320312 225.78125 41.835938 225.78125 42.371094 C 225.78125 44.472656 225.300781 46.183594 224.34375 47.503906 C 223.386719 48.785156 222.089844 49.730469 220.457031 50.335938 C 218.824219 50.941406 217.015625 51.246094 215.027344 51.246094 C 214.140625 51.246094 213.148438 51.121094 212.046875 50.871094 C 211.621094 51.261719 211.410156 51.777344 211.410156 52.417969 C 211.410156 52.988281 211.695312 53.398438 212.261719 53.648438 C 212.863281 53.898438 213.820312 54.023438 215.136719 54.023438 L 219.128906 54.023438 C 222.460938 54.023438 225.035156 54.574219 226.84375 55.679688 C 228.691406 56.75 229.613281 58.511719 229.613281 60.972656 C 229.613281 62.894531 228.972656 64.589844 227.695312 66.050781 C 226.453125 67.511719 224.679688 68.648438 222.375 69.46875 C 220.066406 70.289062 217.335938 70.699219 214.175781 70.699219 Z M 215.027344 45.792969 C 215.878906 45.792969 216.570312 45.488281 217.105469 44.882812 C 217.636719 44.277344 217.902344 43.335938 217.902344 42.050781 C 217.902344 40.804688 217.636719 39.894531 217.105469 39.324219 C 216.570312 38.71875 215.878906 38.417969 215.027344 38.417969 C 214.175781 38.417969 213.484375 38.71875 212.953125 39.324219 C 212.421875 39.894531 212.15625 40.804688 212.15625 42.050781 C 212.15625 43.335938 212.421875 44.277344 212.953125 44.882812 C 213.484375 45.488281 214.175781 45.792969 215.027344 45.792969 Z M 215.667969 65.035156 C 217.15625 65.035156 218.398438 64.800781 219.394531 64.339844 C 220.386719 63.910156 220.882812 63.324219 220.882812 62.574219 C 220.882812 61.863281 220.5625 61.417969 219.925781 61.238281 C 219.320312 61.0625 218.453125 60.972656 217.316406 60.972656 L 215.242188 60.972656 C 214.175781 60.972656 213.359375 60.9375 212.792969 60.863281 C 212.261719 60.828125 211.800781 60.757812 211.410156 60.652344 C 210.769531 61.292969 210.453125 61.933594 210.453125 62.574219 C 210.453125 63.429688 210.929688 64.054688 211.886719 64.445312 C 212.882812 64.835938 214.140625 65.035156 215.667969 65.035156 Z M 243.234375 70.699219 C 241.210938 70.699219 239.347656 70.46875 237.644531 70.003906 C 235.941406 69.578125 234.574219 68.882812 233.546875 67.917969 C 232.550781 66.957031 232.054688 65.675781 232.054688 64.070312 C 232.054688 61.96875 233.296875 60.257812 235.78125 58.941406 L 235.78125 58.726562 C 235.101562 58.222656 234.507812 57.609375 234.023438 56.910156 C 233.5625 56.160156 233.332031 55.234375 233.332031 54.128906 C 233.332031 53.203125 233.597656 52.296875 234.128906 51.40625 C 234.699219 50.515625 235.425781 49.746094 236.3125 49.105469 L 236.3125 48.894531 C 235.355469 48.25 234.503906 47.34375 233.757812 46.167969 C 233.046875 44.957031 232.695312 43.582031 232.695312 42.050781 C 232.695312 39.84375 233.226562 38.023438 234.289062 36.601562 C 235.390625 35.140625 236.808594 34.070312 238.546875 33.394531 C 240.289062 32.679688 242.132812 32.324219 244.082031 32.324219 C 245.644531 32.324219 247.066406 32.539062 248.34375 32.964844 L 258.242188 32.964844 L 258.242188 39.59375 L 254.410156 39.59375 C 254.515625 39.914062 254.605469 40.324219 254.675781 40.820312 C 254.78125 41.320312 254.835938 41.835938 254.835938 42.371094 C 254.835938 44.472656 254.355469 46.183594 253.398438 47.503906 C 252.441406 48.785156 251.144531 49.730469 249.511719 50.335938 C 247.878906 50.941406 246.070312 51.246094 244.082031 51.246094 C 243.195312 51.246094 242.203125 51.121094 241.101562 50.871094 C 240.675781 51.261719 240.464844 51.777344 240.464844 52.417969 C 240.464844 52.988281 240.75 53.398438 241.316406 53.648438 C 241.917969 53.898438 242.878906 54.023438 244.191406 54.023438 L 248.183594 54.023438 C 251.515625 54.023438 254.089844 54.574219 255.898438 55.679688 C 257.746094 56.75 258.667969 58.511719 258.667969 60.972656 C 258.667969 62.894531 258.027344 64.589844 256.75 66.050781 C 255.507812 67.511719 253.734375 68.648438 251.429688 69.46875 C 249.121094 70.289062 246.390625 70.699219 243.234375 70.699219 Z M 244.082031 45.792969 C 244.933594 45.792969 245.628906 45.488281 246.160156 44.882812 C 246.691406 44.277344 246.957031 43.335938 246.957031 42.050781 C 246.957031 40.804688 246.691406 39.894531 246.160156 39.324219 C 245.628906 38.71875 244.933594 38.417969 244.082031 38.417969 C 243.234375 38.417969 242.539062 38.71875 242.007812 39.324219 C 241.476562 39.894531 241.210938 40.804688 241.210938 42.050781 C 241.210938 43.335938 241.476562 44.277344 242.007812 44.882812 C 242.539062 45.488281 243.234375 45.792969 244.082031 45.792969 Z M 244.722656 65.035156 C 246.214844 65.035156 247.453125 64.800781 248.449219 64.339844 C 249.441406 63.910156 249.9375 63.324219 249.9375 62.574219 C 249.9375 61.863281 249.617188 61.417969 248.980469 61.238281 C 248.378906 61.0625 247.507812 60.972656 246.371094 60.972656 L 244.296875 60.972656 C 243.234375 60.972656 242.414062 60.9375 241.847656 60.863281 C 241.316406 60.828125 240.855469 60.757812 240.464844 60.652344 C 239.824219 61.292969 239.507812 61.933594 239.507812 62.574219 C 239.507812 63.429688 239.984375 64.054688 240.945312 64.445312 C 241.9375 64.835938 243.195312 65.035156 244.722656 65.035156 Z M 262.601562 59.6875 L 262.601562 32.964844 L 271.753906 32.964844 L 271.753906 59.6875 Z M 267.179688 29.652344 C 265.6875 29.652344 264.480469 29.242188 263.558594 28.421875 C 262.636719 27.566406 262.175781 26.445312 262.175781 25.054688 C 262.175781 23.664062 262.636719 22.5625 263.558594 21.742188 C 264.480469 20.886719 265.6875 20.457031 267.179688 20.457031 C 268.667969 20.457031 269.875 20.886719 270.796875 21.742188 C 271.71875 22.5625 272.179688 23.664062 272.179688 25.054688 C 272.179688 26.445312 271.71875 27.566406 270.796875 28.421875 C 269.875 29.242188 268.667969 29.652344 267.179688 29.652344 Z M 277.933594 59.6875 L 277.933594 32.964844 L 285.386719 32.964844 L 286.023438 36.171875 L 286.238281 36.171875 C 287.300781 35.140625 288.507812 34.25 289.855469 33.5 C 291.238281 32.714844 292.835938 32.324219 294.644531 32.324219 C 297.589844 32.324219 299.703125 33.320312 300.980469 35.316406 C 302.292969 37.277344 302.949219 39.914062 302.949219 43.226562 L 302.949219 59.6875 L 293.792969 59.6875 L 293.792969 44.402344 C 293.792969 42.691406 293.582031 41.550781 293.15625 40.980469 C 292.730469 40.414062 292.054688 40.128906 291.132812 40.128906 C 290.28125 40.128906 289.570312 40.304688 289.003906 40.660156 C 288.4375 41.019531 287.796875 41.515625 287.089844 42.160156 L 287.089844 59.6875 Z M 318.597656 70.699219 C 316.578125 70.699219 314.714844 70.46875 313.011719 70.003906 C 311.308594 69.578125 309.941406 68.882812 308.914062 67.917969 C 307.917969 66.957031 307.421875 65.675781 307.421875 64.070312 C 307.421875 61.96875 308.664062 60.257812 311.148438 58.941406 L 311.148438 58.726562 C 310.46875 58.222656 309.875 57.609375 309.390625 56.910156 C 308.929688 56.160156 308.699219 55.234375 308.699219 54.128906 C 308.699219 53.203125 308.964844 52.296875 309.496094 51.40625 C 310.066406 50.515625 310.792969 49.746094 311.679688 49.105469 L 311.679688 48.894531 C 310.722656 48.25 309.871094 47.34375 309.125 46.167969 C 308.414062 44.957031 308.0625 43.582031 308.0625 42.050781 C 308.0625 39.84375 308.59375 38.023438 309.65625 36.601562 C 310.757812 35.140625 312.175781 34.070312 313.914062 33.394531 C 315.652344 32.679688 317.5 32.324219 319.449219 32.324219 C 321.011719 32.324219 322.429688 32.539062 323.707031 32.964844 L 333.609375 32.964844 L 333.609375 39.59375 L 329.777344 39.59375 C 329.882812 39.914062 329.972656 40.324219 330.042969 40.820312 C 330.148438 41.320312 330.203125 41.835938 330.203125 42.371094 C 330.203125 44.472656 329.722656 46.183594 328.765625 47.503906 C 327.808594 48.785156 326.511719 49.730469 324.878906 50.335938 C 323.246094 50.941406 321.4375 51.246094 319.449219 51.246094 C 318.5625 51.246094 317.570312 51.121094 316.46875 50.871094 C 316.042969 51.261719 315.832031 51.777344 315.832031 52.417969 C 315.832031 52.988281 316.117188 53.398438 316.683594 53.648438 C 317.285156 53.898438 318.246094 54.023438 319.558594 54.023438 L 323.550781 54.023438 C 326.882812 54.023438 329.457031 54.574219 331.265625 55.679688 C 333.113281 56.75 334.035156 58.511719 334.035156 60.972656 C 334.035156 62.894531 333.394531 64.589844 332.117188 66.050781 C 330.875 67.511719 329.101562 68.648438 326.796875 69.46875 C 324.488281 70.289062 321.757812 70.699219 318.597656 70.699219 Z M 319.449219 45.792969 C 320.300781 45.792969 320.996094 45.488281 321.527344 44.882812 C 322.058594 44.277344 322.324219 43.335938 322.324219 42.050781 C 322.324219 40.804688 322.058594 39.894531 321.527344 39.324219 C 320.996094 38.71875 320.300781 38.417969 319.449219 38.417969 C 318.597656 38.417969 317.90625 38.71875 317.375 39.324219 C 316.84375 39.894531 316.578125 40.804688 316.578125 42.050781 C 316.578125 43.335938 316.84375 44.277344 317.375 44.882812 C 317.90625 45.488281 318.597656 45.792969 319.449219 45.792969 Z M 320.089844 65.035156 C 321.578125 65.035156 322.820312 64.800781 323.816406 64.339844 C 324.808594 63.910156 325.304688 63.324219 325.304688 62.574219 C 325.304688 61.863281 324.984375 61.417969 324.347656 61.238281 C 323.742188 61.0625 322.875 60.972656 321.738281 60.972656 L 319.664062 60.972656 C 318.597656 60.972656 317.78125 60.9375 317.214844 60.863281 C 316.683594 60.828125 316.222656 60.757812 315.832031 60.652344 C 315.191406 61.292969 314.875 61.933594 314.875 62.574219 C 314.875 63.429688 315.351562 64.054688 316.308594 64.445312 C 317.304688 64.835938 318.5625 65.035156 320.089844 65.035156 Z M 349.367188 59.6875 L 349.367188 24.949219 L 371.933594 24.949219 L 371.933594 32.644531 L 358.523438 32.644531 L 358.523438 39.273438 L 370.019531 39.273438 L 370.019531 46.96875 L 358.523438 46.96875 L 358.523438 59.6875 Z M 381.945312 60.332031 C 380.277344 60.332031 378.839844 59.957031 377.636719 59.207031 C 376.484375 58.445312 375.546875 57.394531 374.921875 56.160156 C 374.28125 54.914062 373.960938 53.558594 373.960938 52.097656 C 373.960938 49.320312 375.097656 47.148438 377.367188 45.578125 C 379.640625 43.976562 383.332031 42.90625 388.441406 42.371094 C 388.226562 40.519531 386.984375 39.59375 384.714844 39.59375 C 383.753906 39.59375 382.746094 39.789062 381.679688 40.179688 C 380.617188 40.535156 379.390625 41.089844 378.007812 41.835938 L 374.8125 35.851562 C 376.695312 34.710938 378.59375 33.839844 380.507812 33.234375 C 382.457031 32.628906 384.484375 32.320312 386.523438 32.324219 C 390 32.324219 392.714844 33.320312 394.667969 35.316406 C 396.617188 37.277344 397.59375 40.449219 397.59375 44.832031 L 397.59375 59.6875 L 390.144531 59.6875 L 389.503906 57.125 L 389.292969 57.125 C 388.226562 58.085938 387.089844 58.871094 385.882812 59.476562 C 384.714844 60.046875 383.402344 60.332031 381.945312 60.332031 Z M 385.140625 53.273438 C 385.882812 53.273438 386.503906 53.113281 387.003906 52.792969 C 387.5 52.4375 387.976562 51.992188 388.441406 51.457031 L 388.441406 47.824219 C 386.273438 48.144531 384.765625 48.625 383.914062 49.265625 C 383.097656 49.910156 382.691406 50.601562 382.691406 51.351562 C 382.691406 52.632812 383.507812 53.273438 385.140625 53.273438 Z M 415.589844 60.332031 C 413.070312 60.332031 410.800781 59.777344 408.777344 58.671875 C 406.753906 57.570312 405.140625 55.984375 403.933594 53.917969 C 402.765625 51.816406 402.179688 49.285156 402.179688 46.328125 C 402.179688 43.371094 402.835938 40.859375 404.148438 38.792969 C 405.496094 36.6875 407.253906 35.085938 409.417969 33.980469 C 411.582031 32.875 413.921875 32.324219 416.441406 32.324219 C 418.039062 32.324219 419.476562 32.574219 420.753906 33.070312 C 422.066406 33.570312 423.21875 34.25 424.214844 35.101562 L 419.957031 40.980469 C 419.386719 40.484375 418.875 40.144531 418.410156 39.96875 C 417.953125 39.789062 417.464844 39.699219 416.976562 39.699219 C 415.273438 39.699219 413.941406 40.304688 412.984375 41.515625 C 412.023438 42.691406 411.546875 44.296875 411.546875 46.328125 C 411.546875 48.359375 412.042969 49.980469 413.035156 51.191406 C 414.03125 52.367188 415.234375 52.953125 416.65625 52.953125 C 417.402344 52.953125 418.128906 52.792969 418.835938 52.472656 C 419.566406 52.128906 420.261719 51.714844 420.914062 51.246094 L 424.425781 57.230469 C 423.113281 58.40625 421.660156 59.226562 420.0625 59.6875 C 418.464844 60.117188 416.976562 60.332031 415.589844 60.332031 Z M 439.402344 60.332031 C 436.8125 60.332031 434.472656 59.777344 432.378906 58.671875 C 430.320312 57.570312 428.6875 55.984375 427.480469 53.917969 C 426.273438 51.816406 425.671875 49.285156 425.671875 46.328125 C 425.671875 43.441406 426.273438 40.964844 427.480469 38.898438 C 428.722656 36.796875 430.320312 35.175781 432.273438 34.035156 C 434.222656 32.894531 436.28125 32.324219 438.445312 32.324219 C 441.070312 32.324219 443.238281 32.914062 444.9375 34.085938 C 446.679688 35.226562 447.957031 36.777344 448.769531 38.738281 C 449.621094 40.699219 450.050781 42.871094 450.050781 45.257812 C 450.050781 46.042969 449.996094 46.808594 449.890625 47.554688 C 449.820312 48.269531 449.746094 48.785156 449.675781 49.105469 L 434.507812 49.105469 C 434.933594 50.710938 435.695312 51.832031 436.796875 52.472656 C 437.894531 53.078125 439.191406 53.382812 440.679688 53.382812 C 442.386719 53.382812 444.195312 52.847656 446.109375 51.777344 L 449.089844 57.230469 C 447.671875 58.226562 446.074219 58.992188 444.300781 59.527344 C 442.527344 60.0625 440.894531 60.332031 439.402344 60.332031 Z M 434.402344 43.121094 L 442.277344 43.121094 C 442.277344 42.085938 442.011719 41.195312 441.480469 40.449219 C 440.984375 39.664062 440.042969 39.273438 438.660156 39.273438 C 437.664062 39.273438 436.777344 39.574219 435.996094 40.179688 C 435.21875 40.785156 434.683594 41.765625 434.402344 43.121094 Z M 434.402344 43.121094 " fill-opacity="1" fill-rule="nonzero"/></g><g clip-path="url(#540881a605)"><path fill="#ffffff" d="M -73.335938 108.0625 L -73.335938 73.320312 L -64.183594 73.320312 L -64.183594 86.253906 L -53.859375 86.253906 L -53.859375 73.320312 L -44.703125 73.320312 L -44.703125 108.0625 L -53.859375 108.0625 L -53.859375 94.273438 L -64.183594 94.273438 L -64.183594 108.0625 Z M -29.714844 108.703125 C -32.621094 108.703125 -34.734375 107.722656 -36.046875 105.761719 C -37.359375 103.765625 -38.015625 101.113281 -38.015625 97.800781 L -38.015625 81.335938 L -28.859375 81.335938 L -28.859375 96.625 C -28.859375 98.332031 -28.648438 99.472656 -28.222656 100.042969 C -27.761719 100.613281 -27.085938 100.898438 -26.199219 100.898438 C -25.347656 100.898438 -24.640625 100.71875 -24.070312 100.363281 C -23.503906 100.007812 -22.933594 99.402344 -22.367188 98.546875 L -22.367188 81.335938 L -13.214844 81.335938 L -13.214844 108.0625 L -20.664062 108.0625 L -21.304688 104.535156 L -21.515625 104.535156 C -22.582031 105.816406 -23.769531 106.832031 -25.082031 107.578125 C -26.359375 108.328125 -27.902344 108.703125 -29.714844 108.703125 Z M 2.652344 119.070312 C 0.632812 119.070312 -1.230469 118.839844 -2.933594 118.375 C -4.636719 117.949219 -6.003906 117.253906 -7.03125 116.292969 C -8.027344 115.328125 -8.523438 114.046875 -8.523438 112.441406 C -8.523438 110.339844 -7.28125 108.632812 -4.796875 107.3125 L -4.796875 107.097656 C -5.476562 106.59375 -6.070312 105.980469 -6.554688 105.28125 C -7.015625 104.535156 -7.246094 103.605469 -7.246094 102.503906 C -7.246094 101.574219 -6.980469 100.667969 -6.445312 99.777344 C -5.878906 98.886719 -5.152344 98.121094 -4.265625 97.476562 L -4.265625 97.265625 C -5.222656 96.625 -6.074219 95.714844 -6.820312 94.539062 C -7.53125 93.328125 -7.882812 91.957031 -7.882812 90.421875 C -7.882812 88.214844 -7.351562 86.398438 -6.289062 84.972656 C -5.1875 83.511719 -3.769531 82.441406 -2.03125 81.765625 C -0.289062 81.050781 1.554688 80.695312 3.503906 80.695312 C 5.066406 80.695312 6.488281 80.910156 7.761719 81.335938 L 17.664062 81.335938 L 17.664062 87.964844 L 13.832031 87.964844 C 13.9375 88.285156 14.027344 88.695312 14.097656 89.195312 C 14.203125 89.691406 14.257812 90.210938 14.257812 90.742188 C 14.257812 92.847656 13.777344 94.558594 12.820312 95.875 C 11.863281 97.15625 10.566406 98.101562 8.933594 98.707031 C 7.300781 99.3125 5.492188 99.617188 3.503906 99.617188 C 2.617188 99.617188 1.625 99.492188 0.523438 99.242188 C 0.0976562 99.632812 -0.113281 100.152344 -0.113281 100.792969 C -0.113281 101.363281 0.171875 101.773438 0.738281 102.019531 C 1.339844 102.269531 2.300781 102.394531 3.613281 102.394531 L 7.605469 102.394531 C 10.941406 102.394531 13.511719 102.949219 15.320312 104.050781 C 17.167969 105.121094 18.089844 106.882812 18.089844 109.34375 C 18.089844 111.269531 17.449219 112.960938 16.171875 114.421875 C 14.929688 115.882812 13.15625 117.023438 10.851562 117.839844 C 8.542969 118.660156 5.8125 119.070312 2.652344 119.070312 Z M 3.503906 94.164062 C 4.359375 94.164062 5.050781 93.863281 5.582031 93.257812 C 6.113281 92.652344 6.378906 91.707031 6.378906 90.421875 C 6.378906 89.175781 6.113281 88.265625 5.582031 87.699219 C 5.050781 87.09375 4.359375 86.789062 3.503906 86.789062 C 2.652344 86.789062 1.960938 87.09375 1.429688 87.699219 C 0.898438 88.265625 0.632812 89.175781 0.632812 90.421875 C 0.632812 91.707031 0.898438 92.652344 1.429688 93.257812 C 1.960938 93.863281 2.652344 94.164062 3.503906 94.164062 Z M 4.144531 113.40625 C 5.632812 113.40625 6.875 113.175781 7.871094 112.710938 C 8.863281 112.28125 9.359375 111.695312 9.359375 110.945312 C 9.359375 110.234375 9.042969 109.789062 8.402344 109.609375 C 7.800781 109.433594 6.929688 109.34375 5.792969 109.34375 L 3.71875 109.34375 C 2.652344 109.34375 1.839844 109.308594 1.269531 109.238281 C 0.738281 109.199219 0.277344 109.128906 -0.113281 109.023438 C -0.75 109.664062 -1.070312 110.304688 -1.070312 110.945312 C -1.070312 111.800781 -0.59375 112.425781 0.367188 112.816406 C 1.359375 113.210938 2.617188 113.40625 4.144531 113.40625 Z M 31.710938 119.070312 C 29.6875 119.070312 27.824219 118.839844 26.121094 118.375 C 24.417969 117.949219 23.050781 117.253906 22.023438 116.292969 C 21.027344 115.328125 20.53125 114.046875 20.53125 112.441406 C 20.53125 110.339844 21.773438 108.632812 24.257812 107.3125 L 24.257812 107.097656 C 23.578125 106.59375 22.984375 105.980469 22.5 105.28125 C 22.039062 104.535156 21.808594 103.605469 21.808594 102.503906 C 21.808594 101.574219 22.074219 100.667969 22.609375 99.777344 C 23.175781 98.886719 23.902344 98.121094 24.789062 97.476562 L 24.789062 97.265625 C 23.832031 96.625 22.980469 95.714844 22.234375 94.539062 C 21.527344 93.328125 21.171875 91.957031 21.171875 90.421875 C 21.171875 88.214844 21.703125 86.398438 22.769531 84.972656 C 23.867188 83.511719 25.285156 82.441406 27.027344 81.765625 C 28.765625 81.050781 30.609375 80.695312 32.5625 80.695312 C 34.121094 80.695312 35.542969 80.910156 36.820312 81.335938 L 46.71875 81.335938 L 46.71875 87.964844 L 42.886719 87.964844 C 42.992188 88.285156 43.082031 88.695312 43.152344 89.195312 C 43.257812 89.691406 43.3125 90.210938 43.3125 90.742188 C 43.3125 92.847656 42.832031 94.558594 41.875 95.875 C 40.917969 97.15625 39.621094 98.101562 37.988281 98.707031 C 36.359375 99.3125 34.546875 99.617188 32.5625 99.617188 C 31.675781 99.617188 30.679688 99.492188 29.582031 99.242188 C 29.15625 99.632812 28.941406 100.152344 28.941406 100.792969 C 28.941406 101.363281 29.226562 101.773438 29.792969 102.019531 C 30.398438 102.269531 31.355469 102.394531 32.667969 102.394531 L 36.660156 102.394531 C 39.996094 102.394531 42.566406 102.949219 44.375 104.050781 C 46.222656 105.121094 47.144531 106.882812 47.144531 109.34375 C 47.144531 111.269531 46.503906 112.960938 45.230469 114.421875 C 43.988281 115.882812 42.210938 117.023438 39.90625 117.839844 C 37.601562 118.660156 34.867188 119.070312 31.710938 119.070312 Z M 32.5625 94.164062 C 33.414062 94.164062 34.105469 93.863281 34.636719 93.257812 C 35.167969 92.652344 35.433594 91.707031 35.433594 90.421875 C 35.433594 89.175781 35.167969 88.265625 34.636719 87.699219 C 34.105469 87.09375 33.414062 86.789062 32.5625 86.789062 C 31.710938 86.789062 31.015625 87.09375 30.484375 87.699219 C 29.953125 88.265625 29.6875 89.175781 29.6875 90.421875 C 29.6875 91.707031 29.953125 92.652344 30.484375 93.257812 C 31.015625 93.863281 31.710938 94.164062 32.5625 94.164062 Z M 33.199219 113.40625 C 34.691406 113.40625 35.933594 113.175781 36.925781 112.710938 C 37.917969 112.28125 38.414062 111.695312 38.414062 110.945312 C 38.414062 110.234375 38.097656 109.789062 37.457031 109.609375 C 36.855469 109.433594 35.984375 109.34375 34.847656 109.34375 L 32.773438 109.34375 C 31.710938 109.34375 30.894531 109.308594 30.324219 109.238281 C 29.792969 109.199219 29.332031 109.128906 28.941406 109.023438 C 28.304688 109.664062 27.984375 110.304688 27.984375 110.945312 C 27.984375 111.800781 28.460938 112.425781 29.421875 112.816406 C 30.414062 113.210938 31.675781 113.40625 33.199219 113.40625 Z M 51.078125 108.0625 L 51.078125 81.335938 L 60.234375 81.335938 L 60.234375 108.0625 Z M 55.65625 78.023438 C 54.164062 78.023438 52.957031 77.613281 52.035156 76.792969 C 51.113281 75.9375 50.652344 74.816406 50.652344 73.425781 C 50.652344 72.039062 51.113281 70.933594 52.035156 70.113281 C 52.957031 69.257812 54.164062 68.832031 55.65625 68.832031 C 57.144531 68.832031 58.351562 69.257812 59.273438 70.113281 C 60.195312 70.933594 60.65625 72.039062 60.65625 73.425781 C 60.65625 74.816406 60.195312 75.9375 59.273438 76.792969 C 58.351562 77.613281 57.144531 78.023438 55.65625 78.023438 Z M 66.410156 108.0625 L 66.410156 81.335938 L 73.863281 81.335938 L 74.5 84.542969 L 74.714844 84.542969 C 75.777344 83.511719 76.984375 82.621094 78.332031 81.871094 C 79.71875 81.085938 81.3125 80.695312 83.125 80.695312 C 86.070312 80.695312 88.179688 81.695312 89.457031 83.6875 C 90.769531 85.648438 91.425781 88.285156 91.425781 91.597656 L 91.425781 108.0625 L 82.273438 108.0625 L 82.273438 92.773438 C 82.273438 91.066406 82.058594 89.925781 81.632812 89.355469 C 81.207031 88.785156 80.535156 88.5 79.609375 88.5 C 78.757812 88.5 78.050781 88.675781 77.480469 89.035156 C 76.914062 89.390625 76.273438 89.890625 75.566406 90.53125 L 75.566406 108.0625 Z M 107.078125 119.070312 C 105.054688 119.070312 103.191406 118.839844 101.488281 118.375 C 99.785156 117.949219 98.417969 117.253906 97.390625 116.292969 C 96.394531 115.328125 95.898438 114.046875 95.898438 112.441406 C 95.898438 110.339844 97.140625 108.632812 99.625 107.3125 L 99.625 107.097656 C 98.945312 106.59375 98.351562 105.980469 97.867188 105.28125 C 97.40625 104.535156 97.175781 103.605469 97.175781 102.503906 C 97.175781 101.574219 97.441406 100.667969 97.976562 99.777344 C 98.542969 98.886719 99.269531 98.121094 100.15625 97.476562 L 100.15625 97.265625 C 99.199219 96.625 98.347656 95.714844 97.601562 94.539062 C 96.894531 93.328125 96.539062 91.957031 96.539062 90.421875 C 96.539062 88.214844 97.070312 86.398438 98.132812 84.972656 C 99.234375 83.511719 100.652344 82.441406 102.390625 81.765625 C 104.132812 81.050781 105.976562 80.695312 107.929688 80.695312 C 109.488281 80.695312 110.910156 80.910156 112.1875 81.335938 L 122.085938 81.335938 L 122.085938 87.964844 L 118.253906 87.964844 C 118.359375 88.285156 118.449219 88.695312 118.519531 89.195312 C 118.625 89.691406 118.679688 90.210938 118.679688 90.742188 C 118.679688 92.847656 118.199219 94.558594 117.242188 95.875 C 116.285156 97.15625 114.988281 98.101562 113.355469 98.707031 C 111.722656 99.3125 109.914062 99.617188 107.929688 99.617188 C 107.039062 99.617188 106.046875 99.492188 104.949219 99.242188 C 104.519531 99.632812 104.308594 100.152344 104.308594 100.792969 C 104.308594 101.363281 104.59375 101.773438 105.160156 102.019531 C 105.761719 102.269531 106.722656 102.394531 108.035156 102.394531 L 112.027344 102.394531 C 115.363281 102.394531 117.933594 102.949219 119.742188 104.050781 C 121.589844 105.121094 122.511719 106.882812 122.511719 109.34375 C 122.511719 111.269531 121.871094 112.960938 120.59375 114.421875 C 119.351562 115.882812 117.578125 117.023438 115.273438 117.839844 C 112.964844 118.660156 110.234375 119.070312 107.078125 119.070312 Z M 107.929688 94.164062 C 108.78125 94.164062 109.472656 93.863281 110.003906 93.257812 C 110.535156 92.652344 110.800781 91.707031 110.800781 90.421875 C 110.800781 89.175781 110.535156 88.265625 110.003906 87.699219 C 109.472656 87.09375 108.78125 86.789062 107.929688 86.789062 C 107.078125 86.789062 106.382812 87.09375 105.851562 87.699219 C 105.320312 88.265625 105.054688 89.175781 105.054688 90.421875 C 105.054688 91.707031 105.320312 92.652344 105.851562 93.257812 C 106.382812 93.863281 107.078125 94.164062 107.929688 94.164062 Z M 108.566406 113.40625 C 110.058594 113.40625 111.296875 113.175781 112.292969 112.710938 C 113.285156 112.28125 113.78125 111.695312 113.78125 110.945312 C 113.78125 110.234375 113.464844 109.789062 112.824219 109.609375 C 112.222656 109.433594 111.351562 109.34375 110.214844 109.34375 L 108.140625 109.34375 C 107.078125 109.34375 106.261719 109.308594 105.691406 109.238281 C 105.160156 109.199219 104.699219 109.128906 104.308594 109.023438 C 103.667969 109.664062 103.351562 110.304688 103.351562 110.945312 C 103.351562 111.800781 103.828125 112.425781 104.789062 112.816406 C 105.78125 113.210938 107.039062 113.40625 108.566406 113.40625 Z M 137.84375 108.0625 L 137.84375 73.320312 L 160.410156 73.320312 L 160.410156 81.015625 L 147 81.015625 L 147 87.644531 L 158.496094 87.644531 L 158.496094 95.339844 L 147 95.339844 L 147 108.0625 Z M 170.421875 108.703125 C 168.753906 108.703125 167.320312 108.328125 166.113281 107.578125 C 164.960938 106.816406 164.023438 105.769531 163.398438 104.535156 C 162.757812 103.285156 162.441406 101.933594 162.441406 100.472656 C 162.441406 97.691406 163.574219 95.519531 165.847656 93.949219 C 168.117188 92.347656 171.808594 91.277344 176.917969 90.742188 C 176.703125 88.890625 175.460938 87.964844 173.191406 87.964844 C 172.234375 87.964844 171.222656 88.160156 170.15625 88.550781 C 169.09375 88.910156 167.867188 89.460938 166.484375 90.210938 L 163.292969 84.222656 C 165.171875 83.082031 167.070312 82.210938 168.984375 81.605469 C 170.933594 81 172.960938 80.691406 175 80.695312 C 178.476562 80.695312 181.191406 81.695312 183.144531 83.6875 C 185.09375 85.648438 186.070312 88.820312 186.070312 93.203125 L 186.070312 108.0625 L 178.621094 108.0625 L 177.980469 105.496094 L 177.769531 105.496094 C 176.703125 106.457031 175.566406 107.242188 174.363281 107.847656 C 173.191406 108.417969 171.878906 108.703125 170.421875 108.703125 Z M 173.617188 101.648438 C 174.363281 101.648438 174.984375 101.488281 175.480469 101.167969 C 175.976562 100.808594 176.457031 100.363281 176.917969 99.832031 L 176.917969 96.195312 C 174.753906 96.515625 173.246094 96.996094 172.394531 97.636719 C 171.578125 98.28125 171.167969 98.976562 171.167969 99.722656 C 171.167969 101.003906 171.984375 101.648438 173.617188 101.648438 Z M 204.070312 108.703125 C 201.550781 108.703125 199.277344 108.148438 197.257812 107.046875 C 195.234375 105.941406 193.617188 104.355469 192.414062 102.289062 C 191.242188 100.1875 190.65625 97.65625 190.65625 94.699219 C 190.65625 91.742188 191.3125 89.230469 192.625 87.164062 C 193.972656 85.0625 195.730469 83.457031 197.894531 82.351562 C 200.058594 81.25 202.402344 80.695312 204.917969 80.695312 C 206.515625 80.695312 207.953125 80.945312 209.230469 81.445312 C 210.542969 81.941406 211.695312 82.621094 212.691406 83.476562 L 208.433594 89.355469 C 207.863281 88.855469 207.351562 88.515625 206.890625 88.339844 C 206.429688 88.160156 205.945312 88.070312 205.453125 88.070312 C 203.75 88.070312 202.417969 88.675781 201.460938 89.890625 C 200.503906 91.066406 200.023438 92.667969 200.023438 94.699219 C 200.023438 96.730469 200.519531 98.351562 201.511719 99.5625 C 202.507812 100.738281 203.714844 101.328125 205.132812 101.328125 C 205.878906 101.328125 206.605469 101.167969 207.316406 100.84375 C 208.042969 100.5 208.738281 100.089844 209.390625 99.617188 L 212.902344 105.601562 C 211.589844 106.777344 210.136719 107.597656 208.539062 108.0625 C 206.941406 108.488281 205.453125 108.703125 204.070312 108.703125 Z M 227.882812 108.703125 C 225.289062 108.703125 222.949219 108.148438 220.855469 107.046875 C 218.796875 105.941406 217.164062 104.355469 215.957031 102.289062 C 214.753906 100.1875 214.148438 97.65625 214.148438 94.699219 C 214.148438 91.8125 214.753906 89.335938 215.957031 87.269531 C 217.199219 85.167969 218.796875 83.546875 220.75 82.40625 C 222.699219 81.265625 224.757812 80.695312 226.921875 80.695312 C 229.550781 80.695312 231.714844 81.285156 233.417969 82.460938 C 235.15625 83.601562 236.433594 85.148438 237.25 87.109375 C 238.101562 89.070312 238.527344 91.242188 238.527344 93.628906 C 238.527344 94.414062 238.472656 95.179688 238.367188 95.929688 C 238.296875 96.640625 238.222656 97.15625 238.152344 97.476562 L 222.984375 97.476562 C 223.410156 99.082031 224.171875 100.203125 225.273438 100.84375 C 226.375 101.453125 227.667969 101.753906 229.160156 101.753906 C 230.863281 101.753906 232.671875 101.21875 234.585938 100.152344 L 237.566406 105.601562 C 236.148438 106.601562 234.550781 107.367188 232.777344 107.898438 C 231.003906 108.433594 229.371094 108.703125 227.882812 108.703125 Z M 222.878906 91.492188 L 230.753906 91.492188 C 230.753906 90.457031 230.488281 89.566406 229.957031 88.820312 C 229.460938 88.035156 228.519531 87.644531 227.136719 87.644531 C 226.140625 87.644531 225.253906 87.945312 224.476562 88.550781 C 223.695312 89.160156 223.160156 90.136719 222.878906 91.492188 Z M 222.878906 91.492188 " fill-opacity="1" fill-rule="nonzero"/></g></svg>